<?xml version="1.0" encoding="utf-8"?>
<!-- Generator: Adobe Illustrator 16.0.0, SVG Export Plug-In . SVG Version: 6.00 Build 0)  -->
<!DOCTYPE svg PUBLIC "-//W3C//DTD SVG 1.1//EN" "http://www.w3.org/Graphics/SVG/1.1/DTD/svg11.dtd">
<svg version="1.1" id="Layer_1" xmlns="http://www.w3.org/2000/svg" xmlns:xlink="http://www.w3.org/1999/xlink" x="0px" y="0px"
	 width="145px" height="48px" viewBox="0 0 145 48" enable-background="new 0 0 145 48" xml:space="preserve">
<g>
	<path fill="#F79621" d="M78.983,23.823c0,6.335-5.14,11.474-11.474,11.474c-6.335,0-11.469-5.139-11.469-11.474
		c0-6.335,5.134-11.471,11.469-11.471C73.844,12.352,78.983,17.487,78.983,23.823"/>
	<path fill="#F79621" d="M110.356,23.823c0,6.335-5.138,11.474-11.475,11.474c-6.335,0-11.47-5.139-11.47-11.474
		c0-6.335,5.135-11.471,11.47-11.471C105.219,12.352,110.356,17.487,110.356,23.823"/>
	<path fill="#F79621" d="M141.519,23.823c0,6.335-5.136,11.474-11.473,11.474c-6.333,0-11.473-5.139-11.473-11.474
		c0-6.335,5.14-11.471,11.473-11.471C136.383,12.352,141.519,17.487,141.519,23.823"/>
	<path fill="#040404" d="M14.68,10.492v5.741h-4.636v21.962H3.8V16.233H0.5v-5.741h3.098V9.737c0-2.923,0.805-5.101,2.417-6.535
		c1.613-1.437,4.057-2.152,7.328-2.152c0.134,0,0.348,0.008,0.643,0.023c0.294,0.019,0.525,0.025,0.693,0.025v5.791h-0.454
		c-1.462,0-2.507,0.24-3.136,0.719c-0.63,0.477-0.944,1.271-0.944,2.38v0.504H14.68z"/>
	<path fill="#040404" d="M17.827,10.492h6.296v27.704h-6.296V10.492z M24.123,7.671h-6.296V1.527h6.296V7.671z"/>
	<rect x="29.892" y="1.527" fill="#040404" width="6.295" height="36.668"/>
	<path fill="#040404" d="M41.954,10.492h6.298v27.704h-6.298V10.492z M48.253,7.671h-6.298V1.527h6.298V7.671z"/>
	<path fill="#040404" d="M58.832,24.005c0,2.37,0.764,4.344,2.291,5.932c1.526,1.584,3.419,2.379,5.667,2.379
		c2.217,0,4.111-0.805,5.68-2.418c1.569-1.609,2.354-3.541,2.354-5.791c0-2.334-0.789-4.274-2.365-5.819
		c-1.577-1.545-3.568-2.316-5.97-2.316c-2.115,0-3.922,0.776-5.416,2.33C59.578,19.855,58.832,21.756,58.832,24.005 M58.58,35.768
		v11.184h-6.345v-36.67h6.345v2.317c1.292-1.023,2.645-1.784,4.055-2.279c1.411-0.496,2.932-0.744,4.559-0.744
		c1.746,0,3.392,0.272,4.937,0.818c1.546,0.546,2.929,1.356,4.156,2.431c1.662,1.445,2.941,3.148,3.84,5.111
		c0.896,1.964,1.35,4.058,1.35,6.272c0,2.062-0.408,4.037-1.22,5.917c-0.815,1.883-1.97,3.502-3.466,4.861
		c-1.276,1.209-2.731,2.133-4.37,2.77c-1.637,0.641-3.361,0.957-5.174,0.957c-1.764,0-3.35-0.238-4.747-0.719
		C61.095,37.516,59.789,36.773,58.58,35.768"/>
	<path fill="#040404" d="M90.864,24.005c0,2.37,0.766,4.344,2.294,5.932c1.529,1.584,3.416,2.379,5.669,2.379
		c2.216,0,4.11-0.805,5.676-2.418c1.569-1.609,2.356-3.541,2.356-5.791c0-2.334-0.789-4.274-2.366-5.819s-3.569-2.316-5.971-2.316
		c-2.114,0-3.921,0.776-5.413,2.33C91.614,19.855,90.864,21.756,90.864,24.005 M90.616,35.768v11.184h-6.351v-36.67h6.351v2.317
		c1.293-1.023,2.643-1.784,4.055-2.279c1.41-0.496,2.931-0.744,4.557-0.744c1.748,0,3.392,0.272,4.937,0.818
		c1.547,0.546,2.931,1.356,4.156,2.431c1.661,1.445,2.94,3.148,3.841,5.111c0.9,1.964,1.348,4.058,1.348,6.272
		c0,2.062-0.408,4.037-1.219,5.917c-0.816,1.883-1.968,3.502-3.464,4.861c-1.275,1.209-2.732,2.133-4.369,2.77
		c-1.643,0.641-3.363,0.957-5.177,0.957c-1.764,0-3.349-0.238-4.749-0.719C93.13,37.516,91.825,36.773,90.616,35.768"/>
	<path fill="#040404" d="M122.111,23.955c0,2.569,0.708,4.608,2.118,6.108c1.407,1.504,3.322,2.254,5.737,2.254
		c2.385,0,4.288-0.768,5.712-2.301c1.415-1.537,2.124-3.609,2.124-6.212c0-2.331-0.746-4.252-2.231-5.751
		c-1.485-1.503-3.356-2.257-5.604-2.257c-2.314,0-4.203,0.762-5.663,2.28C122.845,19.597,122.111,21.556,122.111,23.955
		 M115.462,24.005c0-1.945,0.359-3.8,1.07-5.552c0.714-1.754,1.751-3.313,3.112-4.672c1.392-1.394,2.963-2.465,4.709-3.213
		c1.746-0.746,3.558-1.118,5.439-1.118c1.996,0,3.839,0.33,5.526,0.994c1.688,0.663,3.236,1.658,4.65,2.982
		c1.442,1.396,2.561,3.003,3.349,4.824c0.789,1.822,1.182,3.689,1.182,5.604c0,2.116-0.346,4.045-1.033,5.793
		c-0.684,1.746-1.718,3.324-3.097,4.732c-1.376,1.43-2.948,2.506-4.709,3.238c-1.763,0.729-3.679,1.094-5.739,1.094
		c-2.084,0-3.981-0.367-5.691-1.109c-1.717-0.736-3.275-1.844-4.688-3.322c-1.343-1.443-2.355-3.035-3.045-4.771
		C115.807,27.77,115.462,25.936,115.462,24.005"/>
	<path fill="#040404" d="M56.222,2.472C55.843,2.012,55.18,1.7,54.578,1.7c-1.223,0-2.227,1.052-2.227,2.254
		c0,0.569,0.245,1.108,0.655,1.511C53.414,5.853,54,6.14,54.579,6.14c0.565,0,1.279-0.307,1.644-0.746v0.429
		c-0.462,0.382-1.027,0.61-1.631,0.61c-1.364,0-2.553-1.136-2.553-2.506c0-1.391,1.169-2.52,2.56-2.52
		c0.59,0,1.186,0.232,1.623,0.637V2.472z"/>
	<path fill="#040404" d="M61.562,3.919c0,1.208,1.005,2.221,2.227,2.221c1.215,0,2.228-1.021,2.228-2.221
		c0-1.208-1.012-2.221-2.228-2.221C62.566,1.699,61.562,2.711,61.562,3.919 M66.328,3.919c0,1.377-1.161,2.513-2.539,2.513
		c-1.377,0-2.537-1.136-2.537-2.513c0-1.379,1.154-2.513,2.537-2.513C65.166,1.407,66.328,2.541,66.328,3.919"/>
	<polygon fill="#040404" points="75.925,6.531 71.812,2.159 71.812,6.368 71.503,6.368 71.503,1.407 75.61,5.745 75.61,1.471 
		75.925,1.471 	"/>
	<path fill="#040404" d="M83.656,2.277c-0.221-0.353-0.534-0.578-0.998-0.578c-0.524,0-0.921,0.422-0.921,0.935
		c0,0.515,0.488,0.729,0.885,0.916l0.934,0.487c0.373,0.233,0.56,0.532,0.56,0.973c0,0.812-0.738,1.423-1.534,1.423
		c-0.68,0-1.21-0.421-1.438-1.052l0.271-0.122c0.212,0.519,0.594,0.883,1.183,0.883c0.645,0,1.21-0.509,1.21-1.157
		c0-0.552-0.565-0.784-0.989-0.991l-0.882-0.47c-0.326-0.2-0.509-0.484-0.509-0.874c0-0.729,0.52-1.241,1.254-1.241
		c0.49,0,0.959,0.267,1.194,0.688L83.656,2.277z"/>
	<polygon fill="#040404" points="90.425,6.368 90.113,6.368 90.113,1.763 88.848,1.763 88.848,1.471 91.692,1.471 91.692,1.763 
		90.425,1.763 	"/>
	<path fill="#040404" d="M97.38,3.757c0.303,0,0.611-0.011,0.855-0.226c0.231-0.19,0.346-0.481,0.346-0.773
		c0-0.364-0.173-0.725-0.519-0.883c-0.264-0.124-0.593-0.11-0.879-0.11H96.98v1.992H97.38z M99.092,6.368h-0.356l-1.597-2.315H96.98
		v2.316h-0.308V1.471h0.609c0.395,0,0.784,0.008,1.116,0.247c0.348,0.248,0.492,0.636,0.492,1.052c0,0.852-0.588,1.293-1.402,1.282
		L99.092,6.368z"/>
	<path fill="#040404" d="M107.222,1.471h0.312v3.054c0,0.499,0,0.928-0.33,1.335c-0.332,0.379-0.84,0.572-1.333,0.572
		s-1-0.193-1.331-0.572c-0.329-0.407-0.329-0.836-0.329-1.335V1.471h0.309v2.961c0,0.441,0,0.908,0.255,1.237
		c0.239,0.309,0.72,0.471,1.099,0.471c0.376,0,0.857-0.164,1.095-0.471c0.258-0.329,0.258-0.796,0.258-1.237V1.471H107.222z"/>
	<polygon fill="#040404" points="114.045,6.368 113.73,6.368 113.73,1.763 112.465,1.763 112.465,1.471 115.311,1.471 
		115.311,1.763 114.045,1.763 	"/>
	<path fill="#040404" d="M120.309,3.919c0,1.208,1.007,2.221,2.228,2.221c1.217,0,2.228-1.021,2.228-2.221
		c0-1.208-1.01-2.221-2.228-2.221C121.315,1.699,120.309,2.711,120.309,3.919 M125.074,3.919c0,1.377-1.16,2.513-2.538,2.513
		c-1.375,0-2.538-1.136-2.538-2.513c0-1.379,1.154-2.513,2.538-2.513C123.914,1.407,125.074,2.541,125.074,3.919"/>
	<path fill="#040404" d="M130.954,3.757c0.306,0,0.611-0.011,0.86-0.226c0.233-0.19,0.343-0.481,0.343-0.773
		c0-0.364-0.173-0.725-0.519-0.883c-0.264-0.124-0.589-0.11-0.875-0.11h-0.203v1.992H130.954z M132.67,6.368h-0.355l-1.598-2.315
		h-0.158v2.316h-0.313V1.471h0.613c0.395,0,0.782,0.008,1.118,0.247c0.35,0.248,0.493,0.636,0.493,1.052
		c0,0.852-0.595,1.293-1.402,1.282L132.67,6.368z"/>
	<path fill="#040404" d="M139.388,2.101l-0.959,2.362h1.915L139.388,2.101z M138.31,4.756l-0.653,1.61h-0.318l2.049-5.057
		l2.047,5.057h-0.316l-0.656-1.61H138.31z"/>
</g>
</svg>
