<svg width="234" height="40" viewBox="0 0 234 40" fill="none" xmlns="http://www.w3.org/2000/svg">
<path fill-rule="evenodd" clip-rule="evenodd" d="M4.82408 3.74603C1.89703 6.24014 0.457031 9.69425 0.457031 13.5154C0.457031 17.3366 1.89703 20.8001 4.82408 23.2848C7.99583 25.986 12.2876 27.0495 16.3817 27.0495C20.4758 27.0495 24.7581 25.9954 27.9393 23.2848C30.7817 20.866 32.2969 17.3742 32.2875 13.6754C32.2875 13.0637 31.7887 12.5648 31.177 12.5648H18.4523C17.8311 12.5648 17.3323 13.0637 17.3323 13.6754V17.0542C17.3323 17.6754 17.8311 18.1742 18.4523 18.1742H24.5699C24.2499 18.673 23.8452 19.1342 23.337 19.5295C21.4734 20.9789 18.6687 21.233 16.3911 21.233C14.1135 21.233 11.3088 20.9883 9.44524 19.5295C7.56289 18.0613 7.11113 15.7931 7.11113 13.5154C7.11113 11.2378 7.56289 8.97896 9.44524 7.51073C11.3088 6.06132 14.1135 5.81661 16.3911 5.81661C18.8287 5.81661 21.8217 6.07073 23.704 7.82131C23.9111 8.00955 24.184 8.12249 24.4664 8.12249H29.3511C29.9628 8.12249 30.4711 7.62367 30.4711 7.0119C30.4711 6.77661 30.3958 6.54132 30.2546 6.35308C27.224 1.78839 21.6523 0.00956975 16.3911 0.00956975C12.2876 0.00956975 8.00525 1.06368 4.83349 3.77426L4.82408 3.74603Z" fill="#161341"/>
<path fill-rule="evenodd" clip-rule="evenodd" d="M37.3605 0.235442C36.7393 0.235442 36.2405 0.734264 36.2405 1.35544V25.3648C36.2405 25.986 36.7393 26.4848 37.3605 26.4848H41.5958C42.2169 26.4848 42.7158 25.986 42.7158 25.3648V18.0142H48.3346L54.0381 26.0048C54.2451 26.2965 54.584 26.4754 54.951 26.4754H59.8263C60.4475 26.4754 60.9463 25.9765 60.9463 25.3554C60.9463 25.0918 60.8522 24.8471 60.6922 24.6401C59.0263 22.3342 57.3604 19.9907 55.7134 17.666C59.5345 16.6025 62.6122 14.2213 62.6122 9.12012C62.6122 3.13426 58.1228 0.235442 53.2475 0.235442H37.3605ZM42.7158 12.3954V5.84484C46.2169 5.84484 49.7275 5.84484 53.2287 5.84484C55.0357 5.84484 56.504 6.95542 56.504 9.12012C56.504 11.2848 55.0357 12.3954 53.2287 12.3954C49.7275 12.3954 46.2169 12.3954 42.7158 12.3954Z" fill="#161341"/>
<path fill-rule="evenodd" clip-rule="evenodd" d="M80.3148 18.0282L83.3831 25.4259C83.6748 26.1412 83.9572 26.64 84.8136 26.64H92.4183C93.4254 26.64 94.0371 25.6423 93.7077 24.7106L86.3101 6.71534C85.6795 6.45181 85.0584 6.71534 84.7572 7.31769L80.3148 18.0188V18.0282Z" fill="#161341"/>
<path fill-rule="evenodd" clip-rule="evenodd" d="M74.9124 25.4353L83.157 5.55767C83.5523 4.7012 84.3617 4.20237 85.3029 4.36237L84.1547 1.62356C83.8629 0.898855 83.5806 0.409444 82.7241 0.409444H75.5712C74.7147 0.409444 74.4418 0.908266 74.1406 1.62356C70.95 9.32236 67.7594 17.0117 64.5877 24.72C64.2489 25.6517 64.87 26.6494 65.8771 26.6494H73.4818C74.3382 26.6494 74.6112 26.1505 74.9124 25.4353Z" fill="#EE4923"/>
<path fill-rule="evenodd" clip-rule="evenodd" d="M101.92 0.80946C101.713 0.555343 101.393 0.414167 101.063 0.414167H96.7997C96.1879 0.414167 95.6797 0.912989 95.6797 1.52475V25.5341C95.6797 26.1553 96.1785 26.6541 96.7997 26.6541H100.64C101.261 26.6541 101.76 26.1553 101.76 25.5341V9.66591L115.698 26.2494C116.009 26.6259 116.338 26.6447 116.79 26.6447H120.818C121.44 26.6447 121.938 26.1459 121.938 25.5341V1.52475C121.938 0.903577 121.44 0.404755 120.818 0.404755H116.978C116.357 0.404755 115.858 0.903577 115.858 1.52475V17.3929L101.91 0.800048L101.92 0.80946Z" fill="#161341"/>
<path fill-rule="evenodd" clip-rule="evenodd" d="M132.386 0.414167H128.15C127.529 0.414167 127.03 0.912989 127.03 1.53416V25.5435C127.03 26.1647 127.529 26.6635 128.15 26.6635H147.538C148.16 26.6635 148.658 26.1647 148.658 25.5435V22.1647C148.658 21.5435 148.16 21.0447 147.538 21.0447H133.506V1.52475C133.506 0.903577 133.007 0.404755 132.386 0.404755V0.414167Z" fill="#161341"/>
<path fill-rule="evenodd" clip-rule="evenodd" d="M154.145 3.7647C151.218 6.25881 149.778 9.71292 149.778 13.5247C149.778 17.3364 151.218 20.8094 154.145 23.2941C157.317 25.9952 161.609 27.0588 165.703 27.0588C169.797 27.0588 174.079 26.0046 177.261 23.2941C180.178 20.8094 181.618 17.327 181.618 13.5247C181.618 9.72233 180.178 6.2494 177.261 3.7647C174.089 1.06353 169.797 0 165.703 0C161.609 0 157.317 1.05412 154.145 3.7647ZM172.658 19.5388C170.795 20.9976 167.99 21.2423 165.712 21.2423C163.435 21.2423 160.63 20.9976 158.767 19.5388C156.884 18.0705 156.432 15.8023 156.432 13.5247C156.432 11.247 156.884 8.98821 158.767 7.51998C160.63 6.07057 163.435 5.82587 165.712 5.82587C167.99 5.82587 170.795 6.07057 172.658 7.51998C174.531 8.9788 174.992 11.2564 174.992 13.5247C174.992 15.7929 174.541 18.0705 172.658 19.5388Z" fill="#161341"/>
<path fill-rule="evenodd" clip-rule="evenodd" d="M184.018 6.02356H191.999V25.5341C191.999 26.1553 192.498 26.6541 193.119 26.6541H197.364C197.985 26.6541 198.484 26.1553 198.484 25.5341V6.02356H206.465C207.086 6.02356 207.585 5.52474 207.585 4.90357V1.52475C207.585 0.903577 207.086 0.404755 206.465 0.404755H184.018C183.406 0.404755 182.898 0.903577 182.898 1.52475V4.90357C182.898 5.52474 183.397 6.02356 184.018 6.02356Z" fill="#161341"/>
<path fill-rule="evenodd" clip-rule="evenodd" d="M218.032 16.3388H232.423C233.044 16.3388 233.543 15.84 233.543 15.2188V11.84C233.543 11.2188 233.044 10.72 232.423 10.72H218.032V6.02356H232.423C233.044 6.02356 233.543 5.52474 233.543 4.90357V1.52475C233.543 0.903577 233.044 0.404755 232.423 0.404755H212.667C212.056 0.404755 211.547 0.903577 211.547 1.52475V25.5341C211.547 26.1553 212.046 26.6541 212.667 26.6541H232.423C233.044 26.6541 233.543 26.1553 233.543 25.5341V22.1553C233.543 21.5341 233.044 21.0353 232.423 21.0353H218.032V16.3388Z" fill="#161341"/>
<path fill-rule="evenodd" clip-rule="evenodd" d="M68.5295 36.7718C68.5295 38.0706 68.1248 38.8612 66.7507 38.8612C65.3765 38.8612 64.9718 38.08 64.9718 36.7718V33.6941H63.7389V36.7718C63.7389 38.5224 64.6048 39.9435 66.7507 39.9435C68.8965 39.9435 69.7624 38.5224 69.7624 36.7718V33.6941H68.5295V36.7718Z" fill="#161341"/>
<path fill-rule="evenodd" clip-rule="evenodd" d="M82.76 35.7741C82.76 35.0588 82.3177 33.7412 80.6047 33.7412H76.953V39.8871H78.1859V37.9388H79.9365L81.3294 39.8871H82.76L81.32 37.8635C82.4212 37.5906 82.76 36.5365 82.76 35.7647V35.7741ZM80.7177 36.9035H78.1859V34.7765H80.6047C81.4612 34.7765 81.6212 35.52 81.6212 35.9153C81.6212 36.3106 81.4047 36.9129 80.7271 36.9129L80.7177 36.9035Z" fill="#161341"/>
<path fill-rule="evenodd" clip-rule="evenodd" d="M94.2423 36.4988C94.7129 36.2541 94.8823 35.8494 94.8823 35.3035C94.8823 34.5882 94.6188 33.7412 92.7271 33.7412H89.8094V39.8871H93.2447C94.5435 39.8871 95.3435 39.36 95.3435 38.1929C95.3435 37.3082 95.08 36.7247 94.2423 36.4894V36.4988ZM92.7271 34.7765C93.5835 34.7765 93.7435 35.0494 93.7435 35.4447C93.7435 35.84 93.5176 36.0753 92.8494 36.0753H91.0424V34.7765H92.7271ZM93.2447 38.8518H91.0424V37.1106H92.8494C93.9223 37.1106 94.0635 37.5153 94.0635 38.0141C94.0635 38.5129 93.8753 38.8518 93.2447 38.8518Z" fill="#161341"/>
<path fill-rule="evenodd" clip-rule="evenodd" d="M104.144 33.7412L101.894 39.8871H103.127L103.626 38.5318H106.487L106.986 39.8871H108.219L105.969 33.7412H104.144ZM104.002 37.4965L105 34.7765H105.113L106.111 37.4965H104.002Z" fill="#161341"/>
<path fill-rule="evenodd" clip-rule="evenodd" d="M119.645 39.8871H120.812V33.7412H119.673V38.0612L116.2 33.7412H115.033V39.8871H116.172V35.5294L119.645 39.8871Z" fill="#161341"/>
<path d="M129.348 33.7412H128.115V39.8871H129.348V33.7412Z" fill="#161341"/>
<path fill-rule="evenodd" clip-rule="evenodd" d="M156.473 39.8871V33.7412H155.315L152.887 38.7765L150.459 33.7412H149.301V39.8871H150.449V36.1977L152.209 39.8871H153.565L155.325 36.1977V39.8871H156.473Z" fill="#161341"/>
<path fill-rule="evenodd" clip-rule="evenodd" d="M166.732 33.6471C164.586 33.6471 163.202 35.0682 163.202 36.8188C163.202 38.5694 164.595 39.9906 166.732 39.9906C168.868 39.9906 170.261 38.5694 170.261 36.8188C170.261 35.0682 168.868 33.6471 166.732 33.6471ZM166.732 38.8988C165.141 38.8988 164.473 38.1176 164.473 36.8094C164.473 35.5012 165.141 34.72 166.732 34.72C168.322 34.72 169 35.5012 169 36.8094C169 38.1176 168.332 38.8988 166.732 38.8988Z" fill="#161341"/>
<path fill-rule="evenodd" clip-rule="evenodd" d="M142.27 38.0988C142.27 37.1765 141.536 36.64 140.228 36.4235L139.099 36.2447C138.383 36.1318 137.762 36 137.762 35.4165C137.762 34.88 138.299 34.7388 139.287 34.7388C140.275 34.7388 140.896 34.9271 140.962 35.6706H142.148C142.054 34.4471 140.849 33.6659 139.268 33.6659C137.687 33.6659 136.558 34.4471 136.558 35.4824C136.558 36.5177 137.536 37.0541 138.609 37.2235L139.71 37.4024C140.595 37.5435 141.009 37.7224 141.009 38.24C141.009 38.8706 140.172 38.9177 139.343 38.9177C138.176 38.9177 137.536 38.7388 137.489 37.9577H136.303C136.398 39.1812 137.508 40 139.353 40C141.198 40 142.261 39.1812 142.261 38.1082L142.27 38.0988Z" fill="#161341"/>
</svg>
