<svg width="153" height="40" viewBox="0 0 153 40" fill="none" xmlns="http://www.w3.org/2000/svg">
<path d="M46.7988 7.98148H67.4842V12.4304C67.4837 12.7358 67.3718 13.0287 67.1729 13.2447C66.9741 13.4607 66.7046 13.5823 66.4234 13.5828H60.4233C60.1447 13.5845 59.8778 13.7052 59.6804 13.9189C59.483 14.1325 59.3709 14.422 59.3684 14.7247V31.2343L59.3801 32.6622H56.1002C55.535 32.6622 54.9928 32.4182 54.5931 31.984C54.1934 31.5497 53.9689 30.9608 53.9689 30.3467V14.7247C53.9694 14.5737 53.9424 14.424 53.8895 14.2843C53.8366 14.1446 53.7588 14.0177 53.6606 13.9108C53.5624 13.8039 53.4457 13.7191 53.3172 13.6614C53.1887 13.6037 53.051 13.5741 52.912 13.5744H50.8177C50.2327 13.5744 46.7988 13.4917 46.7988 9.90509" fill="white"/>
<path d="M36.7314 32.6622L36.7021 15.0912L36.7138 7.98148H25.4254C21.0925 7.98148 20.4841 11.8901 20.4841 11.8901C20.4841 11.8901 20.2579 7.97089 16.6817 7.97089H13.004C4.28372 7.97089 3.30874 16.0213 3.30874 20.3218V27.904C3.30874 27.904 3.50373 29.5734 2.168 29.5734H0.674316V32.6601H5.11247C9.14112 32.5415 8.70432 27.0418 8.70432 27.0418V21.0082C8.70432 14.5997 11.7404 13.5744 15.9504 13.5744H16.8845C17.4519 13.5744 17.4383 13.5744 17.4383 14.3879V31.8466C17.4383 32.8444 17.3681 32.6559 18.2865 32.6622H18.3879C23.0913 32.6622 22.7949 27.0439 22.7949 27.0439V20.324C22.7949 14.2332 25.5794 13.5744 29.7894 13.5744H30.7235C31.2909 13.5744 31.2792 13.5744 31.2792 14.3879V27.8087C31.2792 31.6411 33.9448 32.6622 35.0505 32.6622H36.7314Z" fill="white"/>
<path d="M117.971 8.59373C117.971 8.04079 118.067 7.98148 117.56 7.98148H94.2009C93.7777 7.98148 93.768 8.10647 93.7816 8.54712C93.7816 8.6361 93.7816 8.97082 93.7816 9.05556C93.7816 9.05556 95.4059 10.6974 95.4059 13.2206V24.5398C95.4059 27.0382 96.0455 29.0063 97.3247 30.4441C98.4713 31.7301 100.628 32.4376 102.636 32.5626H102.648H102.792C102.987 32.5732 103.173 32.5838 103.377 32.5838L103.368 32.5669L117.737 32.6558V31.7703C117.737 30.5797 117.302 29.4379 116.527 28.596C115.752 27.7541 114.701 27.2812 113.605 27.2812H103.621C101.833 27.2812 100.708 27.082 100.708 24.8152V13.3477H112.328C117.622 13.3456 117.971 8.59373 117.971 8.59373Z" fill="white"/>
<path d="M101.632 22.8344C101.287 22.8344 101.221 22.7137 101.139 22.5315C101.057 22.3493 102.114 17.4619 106.445 17.4619H112.89C113.182 17.4619 113.812 17.6991 113.886 18.3961V21.9129C113.812 22.5166 113.33 22.7899 112.884 22.8344H101.632Z" fill="white"/>
<path d="M44.5077 8.43057C44.5223 8.32644 44.4986 8.22024 44.4416 8.13498C44.3847 8.04972 44.2991 7.99228 44.2035 7.97509C44.0241 7.90094 39.3578 8.8225 39.1218 12.5617C39.1152 12.75 39.1237 12.9385 39.1472 13.1252C39.2149 13.3283 39.3371 13.5047 39.4981 13.6316C39.659 13.7585 39.8513 13.83 40.05 13.837H43.5834C43.8134 13.8287 44.033 13.7312 44.2025 13.5621C44.3721 13.3931 44.4803 13.1637 44.5077 12.9155V8.43057Z" fill="white"/>
<path d="M44.5079 31.4377C44.5079 31.7624 44.3891 32.0739 44.1778 32.3035C43.9664 32.5332 43.6797 32.6622 43.3808 32.6622H39.1143V17.2796C39.114 17.1186 39.143 16.9592 39.1995 16.8104C39.256 16.6616 39.339 16.5263 39.4437 16.4124C39.5484 16.2985 39.6727 16.2081 39.8096 16.1464C39.9464 16.0848 40.0932 16.053 40.2413 16.053H44.5079" fill="white"/>
<path d="M93.2302 31.5521L86.7953 24.722C88.3845 24.4085 89.4667 23.6627 90.6231 22.4171C91.3484 21.6382 91.9239 20.7104 92.3163 19.6877C92.7086 18.665 92.9099 17.5678 92.9085 16.4598C92.9085 11.78 89.34 7.97089 85.5317 7.97089H69.772V32.6622H71.8994C72.7786 32.6622 73.6218 32.2828 74.2434 31.6074C74.8651 30.9319 75.2144 30.0159 75.2144 29.0607V13.1591H85.0013C85.8069 13.1641 86.5784 13.513 87.1493 14.1305C87.7203 14.748 88.0448 15.5846 88.053 16.4598C88.0496 16.751 88.0096 17.0404 87.9341 17.3199C87.9288 17.3678 87.9203 17.4153 87.9087 17.4618C87.0293 20.5676 83.9756 21.1057 83.0533 21.1078C81.8833 21.1078 81.466 20.9193 80.3097 20.3155C80.023 20.1672 79.5882 19.8282 79.1553 19.6248C77.7279 18.9533 76.1094 20.074 76.0158 20.3155C75.9222 20.557 76.1211 20.6841 76.2946 20.8705L87.3296 32.4715C87.386 32.5324 87.453 32.5806 87.5266 32.6133C87.6002 32.646 87.679 32.6626 87.7586 32.6622H94.291L93.2302 31.5521Z" fill="white"/>
<path d="M131.128 8.40939C131.732 8.86699 132.249 9.2568 132.688 9.56398C133.162 9.91696 133.671 10.2098 134.207 10.4368C134.427 10.523 134.659 10.5689 134.893 10.5724C135.129 10.5687 135.362 10.5229 135.583 10.4368C135.907 10.3065 136.219 10.1441 136.516 9.95167C137.245 9.49831 137.467 9.31612 138.764 8.34372L138.538 7.69121L138.409 7.7124C137.323 8.53226 136.824 8.90936 136.188 9.3034C135.927 9.47127 135.652 9.61308 135.367 9.72711C135.069 9.85568 134.737 9.85568 134.439 9.72711C133.958 9.51928 133.5 9.25276 133.074 8.93266C132.612 8.61065 132.075 8.20813 131.42 7.7124L131.128 8.40939ZM143.846 5.47312C144.461 5.47516 145.069 5.61959 145.63 5.89683C146.132 6.14207 146.593 6.47642 146.995 6.88618L147.102 7.00693C147.487 7.44739 147.805 7.95242 148.042 8.5026C148.324 9.13489 148.475 9.8272 148.483 10.53C148.48 11.4191 148.206 12.2821 147.703 12.9833C147.147 13.7862 146.644 14.5128 146.191 15.1802C145.426 16.2554 144.731 17.3881 144.113 18.5698C143.67 19.4829 143.489 20.1714 143.489 20.7794C143.489 21.3874 143.649 21.9488 144.044 22.6967C144.597 23.6624 145.231 24.5702 145.938 25.4084C146.435 26.0312 147.006 26.7197 147.658 27.4994C148.213 28.1527 148.519 29.0106 148.514 29.8996C148.503 30.574 148.363 31.2385 148.102 31.8508C147.882 32.3848 147.596 32.8837 147.252 33.3337L147.233 33.3592L147.211 33.3825C147.086 33.5202 146.958 33.6642 146.821 33.8062L146.804 33.8231L146.784 33.8401C146.389 34.2041 145.946 34.5026 145.47 34.7256C144.931 34.991 144.347 35.1317 143.756 35.1387H143.734C142.938 35.138 142.167 34.8387 141.55 34.2913L140.636 33.4905L140.3 34.1557L140.817 34.607L141.092 34.8506L141.114 34.8676C141.851 35.5277 142.777 35.8906 143.732 35.895C144.429 35.8908 145.117 35.7277 145.753 35.4163C146.285 35.1644 146.782 34.8305 147.227 34.4248C147.251 34.4037 147.275 34.3811 147.297 34.357C147.449 34.1981 147.586 34.0477 147.712 33.9079C147.731 33.8897 147.749 33.8698 147.765 33.8486L147.784 33.8231C148.168 33.3231 148.487 32.7686 148.732 32.1749C149.034 31.468 149.194 30.6999 149.204 29.9208C149.211 28.8581 148.851 27.8313 148.194 27.0439C148.186 27.0345 148.179 27.0246 148.173 27.0142C147.492 26.2007 146.94 25.5312 146.46 24.9381C145.783 24.1355 145.175 23.2676 144.643 22.345C144.329 21.7285 144.193 21.2603 144.193 20.7879C144.193 20.3155 144.364 19.6905 144.737 18.9299C145.127 18.1334 145.747 17.1144 146.761 15.6229C147.211 14.9577 147.712 14.2332 148.268 13.4345C148.86 12.6014 149.179 11.5781 149.177 10.5258C149.167 9.72581 148.996 8.93781 148.678 8.21661C148.408 7.5931 148.048 7.02083 147.611 6.52179L147.57 6.48154L147.488 6.39044L147.447 6.34807C146.995 5.8852 146.475 5.50782 145.909 5.23161C145.26 4.90616 144.556 4.73566 143.842 4.73164H143.832C142.903 4.73689 141.996 5.0438 141.229 5.61295C140.371 6.23579 141.116 5.68286 140.043 6.48578L140.189 7.2548V7.26751C140.811 6.80144 140.813 6.81203 141.607 6.23367C142.262 5.7475 143.035 5.48487 143.828 5.47948L143.846 5.47312ZM138.861 31.9737C138.227 31.4409 137.558 30.9594 136.859 30.5331C136.11 30.1094 135.533 29.9251 134.979 29.9251C134.425 29.9251 133.828 30.1051 133.064 30.5458C132.075 31.1582 131.132 31.8531 130.242 32.624C129.657 33.1113 128.998 33.6685 128.263 34.2934C127.638 34.8378 126.861 35.1365 126.06 35.1408H126.044C125.42 35.1335 124.806 34.9788 124.242 34.6875C123.74 34.4354 123.275 34.101 122.866 33.696C122.78 33.6113 122.717 33.5392 122.671 33.4842L122.6 33.4058L122.591 33.3931C122.228 32.9485 121.928 32.4489 121.698 31.9101C121.424 31.2965 121.277 30.6257 121.267 29.9441C121.264 29.4903 121.344 29.0404 121.502 28.6204C121.661 28.2004 121.894 27.8186 122.189 27.4972C122.831 26.7833 123.39 26.1244 123.874 25.5037C124.53 24.6966 125.094 23.806 125.553 22.8513C125.887 22.1554 126.067 21.3842 126.077 20.5993C126.061 19.768 125.877 18.9507 125.537 18.2054C125.221 17.4813 124.847 16.7887 124.42 16.1356L123.845 16.5424C124.254 17.1649 124.611 17.8256 124.913 18.5168C125.209 19.1652 125.372 19.8759 125.389 20.5993C125.376 21.2707 125.22 21.9297 124.935 22.5251C124.508 23.4127 123.984 24.2413 123.375 24.9931C123.367 24.9999 123.361 25.0077 123.355 25.0164C122.887 25.6118 122.347 26.2494 121.7 26.9718C121.341 27.3626 121.058 27.827 120.866 28.3381C120.675 28.8492 120.579 29.3966 120.584 29.9484C120.595 30.7353 120.763 31.5103 121.078 32.2194C121.335 32.8201 121.67 33.3774 122.074 33.874L122.109 33.9206L122.179 33.9968C122.189 33.9968 122.195 34.0159 122.205 34.0244L122.238 34.0604C122.281 34.1091 122.333 34.1642 122.394 34.2278L122.415 34.2489C122.879 34.7082 123.405 35.0863 123.975 35.3696C124.629 35.7063 125.342 35.8849 126.066 35.8929C127.02 35.8945 127.947 35.5442 128.694 34.8993H128.706L129.096 34.5688C129.671 34.0795 130.196 33.6346 130.679 33.2384C130.685 33.2308 130.693 33.2244 130.701 33.2194C131.555 32.4793 132.459 31.8114 133.407 31.2216C134.053 30.8508 134.544 30.6856 135.002 30.6856C135.461 30.6856 135.936 30.8466 136.562 31.2068C137.268 31.6406 137.943 32.1306 138.583 32.6728L138.861 31.9737ZM123.037 14.1781C122.76 13.8137 122.464 13.4324 122.146 13.0384C121.601 12.3644 121.302 11.497 121.306 10.5999C121.315 9.94768 121.448 9.30451 121.696 8.71022C121.903 8.18753 122.177 7.69904 122.509 7.25904L122.528 7.23361L122.55 7.21031L122.94 6.78661L122.965 6.75906L122.99 6.73788C123.83 5.9543 124.894 5.51112 126.001 5.48372C126.794 5.48667 127.568 5.74871 128.222 6.23579C128.612 6.52603 128.993 6.80144 129.344 7.06413L129.673 6.40527C129.338 6.15317 128.985 5.89047 128.608 5.61507C127.84 5.04614 126.931 4.74063 126.001 4.738C124.734 4.76388 123.514 5.26538 122.548 6.15741L122.532 6.168C122.511 6.18707 122.489 6.21037 122.468 6.23155L122.444 6.25909L122.374 6.33536C122.271 6.44764 122.164 6.56628 122.058 6.68704L122.01 6.74212L121.98 6.77813C121.608 7.27214 121.3 7.82053 121.068 8.40727C120.784 9.0946 120.634 9.8382 120.627 10.5915C120.624 11.6702 120.984 12.713 121.639 13.5235C121.93 13.8851 122.199 14.229 122.446 14.5552L123.037 14.1781ZM139.46 10.8076L139.569 10.6169L139.263 10.0406L137.953 11.0109C137.375 11.443 136.752 11.7986 136.096 12.0702C135.326 12.378 134.48 12.378 133.71 12.0702C133.292 11.9074 132.89 11.7017 132.508 11.4558C131.912 11.083 131.253 10.5978 130.455 9.99828C130.455 9.99828 130.455 9.98133 130.439 9.98557C130.317 10.1981 130.209 10.4197 130.116 10.6487C130.896 11.2397 131.561 11.7249 132.165 12.1041C132.585 12.3743 133.028 12.5999 133.487 12.7778C134.401 13.1365 135.402 13.1365 136.317 12.7778C137.023 12.4885 137.697 12.111 138.323 11.6528L139.46 10.8076ZM125.775 15.2734C126.221 15.9723 126.613 16.7108 126.945 17.4809C127.378 18.4523 127.611 19.5141 127.629 20.593C127.617 21.6405 127.382 22.6707 126.943 23.6034C126.43 24.6831 125.796 25.6899 125.056 26.6011C124.541 27.2578 123.96 27.9442 123.301 28.6794C123.149 28.8412 123.028 29.0349 122.947 29.2486C122.866 29.4624 122.826 29.6918 122.829 29.9229C122.839 30.3534 122.935 30.7764 123.111 31.1623C123.275 31.5431 123.489 31.8963 123.745 32.2109L123.794 32.2703L123.782 32.2554C123.848 32.3253 123.895 32.3804 123.93 32.4122C124.216 32.6986 124.542 32.9339 124.896 33.1092C125.255 33.2984 125.648 33.401 126.048 33.41C126.505 33.411 126.949 33.2403 127.304 32.927C128.035 32.3063 128.688 31.7427 129.303 31.2322C130.259 30.4045 131.274 29.6587 132.337 29.0014C133.238 28.4845 134.092 28.1815 134.983 28.1815C135.903 28.2092 136.801 28.4883 137.596 28.9929C138.317 29.4262 139.008 29.9161 139.663 30.4589L140.027 29.8234C139.359 29.2735 138.653 28.7779 137.918 28.3404C137.027 27.7799 136.021 27.4717 134.993 27.4443C134.043 27.4443 133.099 27.7303 132.025 28.3489C130.932 29.0222 129.889 29.7857 128.905 30.6326C128.901 30.6316 128.897 30.6316 128.893 30.6326C128.429 31.0097 127.943 31.425 127.419 31.8699L126.885 32.3232H126.875C126.64 32.5316 126.345 32.6441 126.042 32.641C125.745 32.6305 125.453 32.5518 125.186 32.4101C124.9 32.2676 124.637 32.0767 124.406 31.8444L124.375 31.8169L124.279 31.711L124.262 31.6919L124.25 31.6771C124.043 31.4227 123.871 31.1373 123.739 30.8297C123.606 30.5439 123.532 30.2302 123.521 29.9102C123.517 29.7731 123.54 29.6367 123.589 29.5102C123.637 29.3837 123.711 29.2701 123.804 29.1772C124.471 28.4357 125.048 27.7536 125.559 27.099C125.569 27.0887 125.578 27.0773 125.586 27.0651C126.367 26.1055 127.034 25.0436 127.573 23.9042C128.056 22.8687 128.315 21.7264 128.328 20.5654C128.311 19.3797 128.057 18.2122 127.583 17.144C127.229 16.3239 126.811 15.5386 126.333 14.7967L125.775 15.2734ZM141.381 31.8974C141.749 32.2173 142.135 32.5584 142.551 32.9206C142.893 33.2342 143.327 33.4047 143.775 33.4015C144.153 33.3916 144.525 33.2994 144.869 33.1304C145.196 32.9729 145.501 32.7676 145.776 32.5202C145.877 32.4143 145.983 32.3084 146.09 32.1813C146.334 31.8592 146.536 31.5029 146.692 31.122C146.863 30.7321 146.957 30.3079 146.969 29.8763C146.976 29.4149 146.816 28.9691 146.523 28.6349L146.503 28.6095L146.523 28.6328C145.87 27.851 145.294 27.1498 144.782 26.5142C144.008 25.5916 143.314 24.5939 142.709 23.5335C142.229 22.6975 141.966 21.7366 141.946 20.7519C141.946 19.7562 142.241 18.7838 142.75 17.7351C143.406 16.4744 144.143 15.2653 144.955 14.1167C145.413 13.4409 145.92 12.71 146.478 11.9049C146.762 11.5125 146.918 11.0291 146.923 10.53C146.917 10.0891 146.822 9.65504 146.644 9.25892C146.482 8.88125 146.265 8.53487 146 8.23355L145.905 8.13186C145.633 7.85726 145.322 7.63194 144.984 7.46453C144.626 7.28326 144.237 7.18651 143.842 7.18065C143.354 7.18387 142.878 7.34705 142.477 7.64884L141.398 8.53015L141.576 8.79284L141.662 9.15299L142.859 8.26957C143.149 8.05065 143.493 7.93178 143.846 7.92849C144.141 7.93452 144.431 8.00664 144.7 8.14034C144.968 8.27424 145.215 8.45374 145.431 8.67209L145.491 8.73776C145.702 8.97896 145.875 9.25588 146.004 9.55763C146.14 9.85441 146.213 10.1798 146.221 10.511C146.221 10.8632 146.11 11.2051 145.907 11.4791L145.879 11.5173C145.329 12.3096 144.832 13.0299 144.38 13.6972C143.549 14.8763 142.795 16.1165 142.122 17.4089C141.519 18.6503 141.236 19.7202 141.236 20.7752C141.254 21.8914 141.55 22.9815 142.092 23.9296C142.553 24.7961 143.177 25.6923 144.237 27.0248C144.723 27.6328 145.273 28.2959 145.965 29.1264L145.985 29.1497C146.075 29.2499 146.145 29.369 146.192 29.4998C146.239 29.6305 146.26 29.7701 146.256 29.9102C146.241 30.2305 146.169 30.5446 146.041 30.8339C145.913 31.1421 145.749 31.4311 145.554 31.694C145.464 31.7915 145.378 31.8868 145.294 31.9737C145.074 32.1699 144.83 32.333 144.569 32.4588C144.312 32.5879 144.033 32.66 143.75 32.6707C143.464 32.6717 143.188 32.5621 142.97 32.3613C142.545 31.9885 142.163 31.6516 141.8 31.3402L141.381 31.8974ZM128.121 9.10426L128.61 8.5937C128.22 8.29923 127.797 7.98569 127.347 7.65732C126.946 7.35508 126.47 7.1932 125.982 7.19336H125.97C125.242 7.22531 124.545 7.52397 123.993 8.04077L123.691 8.37126C123.463 8.68146 123.276 9.0235 123.133 9.38815C122.975 9.76751 122.89 10.1775 122.881 10.5936C122.875 11.0739 123.034 11.5395 123.328 11.8986C123.718 12.3753 124.063 12.8286 124.393 13.2693L124.96 12.8456C124.625 12.3943 124.256 11.9177 123.847 11.4092C123.659 11.1839 123.558 10.889 123.564 10.5851C123.575 10.2748 123.641 9.96977 123.759 9.68686C123.876 9.3931 124.029 9.11745 124.213 8.86699L124.433 8.62336L124.469 8.58523C124.894 8.20287 125.422 7.97998 125.974 7.94967C126.329 7.94812 126.677 8.06575 126.968 8.28652C127.43 8.62689 127.863 8.94891 128.267 9.25256" fill="#F6C76B"/>
<path d="M129.117 34.0901C129.373 34.624 129.663 35.2489 130.011 36.0095C130.461 37.0444 131.111 37.9615 131.918 38.6979C132.653 39.3679 133.559 39.7788 134.515 39.8758H134.533C134.556 39.8779 134.579 39.8779 134.603 39.8758H134.667H134.802H134.95H135.131H135.164C135.185 39.8779 135.206 39.8779 135.227 39.8758H135.262C136.215 39.7715 137.117 39.3606 137.853 38.6957C138.659 37.9605 139.313 37.0478 139.77 36.0179C140.416 34.6303 140.919 33.5944 141.352 32.7575C142.132 31.2386 142.765 30.2662 143.444 29.5098C144.026 28.8744 144.681 28.3239 145.394 27.8722L145.09 27.1964C144.312 27.691 143.597 28.2935 142.962 28.9887C142.223 29.8107 141.564 30.8445 140.763 32.391C140.293 33.2978 139.77 34.3803 139.166 35.679C138.753 36.6154 138.162 37.4453 137.43 38.1132C136.801 38.6873 136.027 39.0423 135.209 39.1322H135.141H134.872H134.829H134.677H134.581C133.763 39.0459 132.987 38.6913 132.358 38.1153C131.629 37.4463 131.042 36.6137 130.637 35.6747C130.284 34.9036 129.964 34.2151 129.662 33.5965L129.117 34.0901ZM124.539 28.0311C125.233 28.4781 125.875 29.0152 126.45 29.6306C127.078 30.3493 127.622 31.149 128.07 32.0118L128.614 31.5457C128.15 30.6604 127.587 29.8401 126.939 29.1031C126.332 28.4524 125.654 27.8834 124.921 27.4083L124.539 28.0311ZM146.923 14.5531C147.508 14.8921 148.167 15.2586 148.894 15.6632C149.798 16.1358 150.591 16.8255 151.213 17.68C151.737 18.4092 152.039 19.2979 152.077 20.2223V20.1735V20.2646C152.077 20.2519 152.077 20.2371 152.077 20.2223V20.254V20.5231C152.026 21.4458 151.713 22.3287 151.181 23.0505C150.564 23.879 149.783 24.5459 148.896 25.0016C148.157 25.3999 147.5 25.7558 146.913 26.0863L147.447 26.6287C147.964 26.3405 148.539 26.027 149.202 25.6711C150.182 25.1654 151.045 24.4261 151.726 23.5081C152.345 22.6645 152.709 21.6325 152.765 20.5549V20.521V20.2646C152.767 20.228 152.767 20.1912 152.765 20.1545C152.716 19.0882 152.367 18.064 151.765 17.2203C151.086 16.2773 150.219 15.5139 149.23 14.9874C148.545 14.6082 147.935 14.2671 147.383 13.9515L146.923 14.5531ZM134.94 1.50093H135.028H135.141H135.157C135.989 1.58379 136.778 1.93997 137.419 2.52206C138.16 3.19748 138.754 4.0443 139.156 5.00072C139.704 6.23582 140.174 7.2633 140.611 8.12978C141.391 9.67629 142.058 10.7144 142.845 11.5702C143.535 12.3024 144.305 12.9392 145.138 13.4663L145.558 12.8668C144.751 12.3634 144.005 11.7528 143.337 11.0491C142.613 10.261 141.972 9.28225 141.219 7.7781C140.829 7.02391 140.422 6.12778 139.782 4.68295C139.335 3.62718 138.678 2.69285 137.857 1.94794C137.109 1.27382 136.191 0.861681 135.223 0.765808H135.174H135.061H134.936H134.708H134.585H134.497C133.531 0.86893 132.617 1.28857 131.875 1.96913C131.071 2.7172 130.43 3.64993 129.999 4.6999C129.439 5.99855 128.987 6.9773 128.579 7.78022C127.866 9.19115 127.214 10.1826 126.489 10.9982C125.651 11.9004 124.699 12.668 123.661 13.2778L123.634 13.2947C122.866 13.7735 121.908 14.3095 120.616 14.9768C119.633 15.4535 118.766 16.1706 118.081 17.072C117.464 17.892 117.096 18.8992 117.028 19.9553C117.026 19.9871 117.026 20.0189 117.028 20.0507V20.343C117.061 21.4489 117.412 22.5157 118.032 23.3937C118.709 24.3475 119.575 25.1224 120.567 25.6605L120.682 25.7283C121.312 26.0863 121.875 26.4062 122.382 26.7007L122.938 26.1774C122.332 25.8215 121.649 25.4359 120.879 24.9953C119.977 24.5093 119.189 23.8083 118.572 22.9446C118.039 22.1907 117.736 21.2743 117.706 20.324V20.2901C117.706 20.1905 117.706 20.1163 117.706 20.0782V20.0549V20.0316C117.763 19.118 118.081 18.2464 118.615 17.5381C119.234 16.7289 120.016 16.0852 120.9 15.6569C122.109 15.0213 123.115 14.479 123.968 13.9472C125.069 13.3002 126.08 12.4847 126.969 11.5258C127.764 10.6402 128.435 9.59155 129.168 8.13613C129.617 7.25271 130.085 6.22947 130.609 5.01344C130.997 4.06304 131.574 3.21844 132.3 2.54113C132.929 1.95929 133.707 1.59878 134.529 1.50729H134.583H134.909H134.93L134.94 1.50093ZM130.917 32.533C131.257 33.2363 131.621 34.0159 132.025 34.9057C132.333 35.6221 132.777 36.2595 133.327 36.7764C133.714 37.1315 134.189 37.3529 134.692 37.4119H134.708H134.854H135.079C135.583 37.3486 136.059 37.122 136.444 36.7615C137 36.2483 137.448 35.6119 137.76 34.8951C138.37 33.5795 138.901 32.48 139.388 31.5352C140.225 29.9251 140.96 28.7514 141.831 27.779C142.446 27.099 143.131 26.499 143.873 25.991L143.545 25.33C142.742 25.8767 142.001 26.5245 141.338 27.26C140.476 28.2197 139.716 29.3785 138.791 31.1665C138.335 32.0478 137.816 33.124 137.147 34.5562C136.877 35.1768 136.49 35.7294 136.013 36.1789C135.737 36.4388 135.399 36.6065 135.038 36.662H134.854H134.728C134.371 36.6086 134.036 36.4429 133.764 36.1853C133.291 35.7357 132.91 35.1836 132.645 34.5646C132.181 33.5499 131.814 32.7618 131.493 32.1008L130.917 32.533ZM125.916 26.0673C126.687 26.5839 127.402 27.1952 128.045 27.8892C128.718 28.6458 129.307 29.4855 129.8 30.3912L130.358 29.9505C129.841 29.0143 129.226 28.1457 128.527 27.3617C127.865 26.644 127.13 26.0113 126.335 25.4762L125.916 26.0673ZM145.792 16.6843C146.412 17.0424 147.1 17.4279 147.878 17.8601C148.471 18.1657 148.994 18.6108 149.409 19.163C149.655 19.4933 149.798 19.8997 149.818 20.324V20.4193C149.79 20.8342 149.643 21.229 149.397 21.5485C148.992 22.0746 148.487 22.4983 147.915 22.7899C147.908 22.7929 147.902 22.7972 147.896 22.8026C146.985 23.292 146.227 23.7051 145.556 24.0886L145.85 24.7644C146.541 24.3682 147.313 23.9487 148.19 23.47C148.866 23.1292 149.461 22.6274 149.933 22.0018C150.268 21.5645 150.467 21.0244 150.505 20.4574V20.3091C150.482 19.7281 150.291 19.1697 149.959 18.7139C149.482 18.0707 148.878 17.5517 148.192 17.1949C147.424 16.7712 146.736 16.3835 146.11 16.0213L145.792 16.6843ZM124.75 15.4387H124.761H124.75C123.845 16.0085 122.8 16.5763 121.571 17.2119C120.904 17.5294 120.313 18.0092 119.843 18.6143C119.513 19.0436 119.315 19.575 119.278 20.1333C119.278 20.2053 119.278 20.2646 119.278 20.3007C119.297 20.889 119.486 21.4559 119.818 21.9213C120.295 22.5783 120.9 23.1117 121.591 23.4827C122.507 23.9996 123.303 24.4508 124.007 24.8682L124.397 24.2326C123.689 23.8089 122.895 23.3619 121.959 22.8323L121.918 22.8111C121.322 22.4912 120.797 22.0326 120.382 21.468C120.132 21.1261 119.985 20.7088 119.962 20.2731V20.1333C119.998 19.7386 120.145 19.3653 120.382 19.0634C120.787 18.5517 121.294 18.1456 121.864 17.875C123.281 17.1398 124.241 16.6038 125.069 16.089L125.089 16.0763C126.581 15.1611 127.661 14.2841 128.593 13.2545C129.525 12.2249 130.305 11.0237 131.155 9.34792C131.588 8.50052 132.052 7.48574 132.661 6.08117C132.909 5.46316 133.278 4.91149 133.743 4.46474C134.018 4.20395 134.356 4.03607 134.718 3.98172H134.796H134.95H135.028C135.396 4.03546 135.742 4.20481 136.022 4.46898C136.499 4.91788 136.88 5.4737 137.14 6.09812C137.707 7.36923 138.183 8.42848 138.649 9.34157C139.55 11.1317 140.336 12.3266 141.268 13.3392C142.048 14.1705 142.916 14.8974 143.855 15.5043L144.154 14.8264C143.284 14.2595 142.478 13.5833 141.753 12.8117C140.823 11.8012 140.069 10.6042 139.25 8.98142C138.789 8.06834 138.312 7.02179 137.756 5.77398C137.456 5.04814 137.011 4.40403 136.453 3.8885C136.06 3.52295 135.574 3.2961 135.059 3.23812H134.985H134.932H134.663C134.158 3.30201 133.683 3.52935 133.298 3.89062C132.752 4.40427 132.319 5.04513 132.033 5.76551C131.496 6.99637 131.019 8.05351 130.545 8.98989C129.889 10.3506 129.065 11.6072 128.096 12.7248C127.106 13.7987 125.979 14.7126 124.75 15.4387Z" fill="#F6C76B"/>
</svg>
