<svg width="216" height="63" viewBox="0 0 216 63" fill="none" xmlns="http://www.w3.org/2000/svg">
<path d="M15.3071 4.37911L15.2441 4.17512C15.2651 4.17512 17.4251 3.48813 22.144 3.26014C25.5549 3.09814 27.3669 3.28714 29.0438 3.61713L29.0018 3.82713C27.3459 3.49713 25.5489 3.31114 22.159 3.47313C17.4671 3.69813 15.3281 4.37011 15.3071 4.37911Z" fill="#1D1D1B"/>
<path d="M3.0584 12.1579L2.9624 11.9659C4.55579 11.1754 6.20884 10.5114 7.90629 9.97994C10.3692 9.24796 14.0891 8.72597 14.1251 8.71997L14.1551 8.92996C14.1191 8.92996 10.4142 9.45796 7.96628 10.1839C6.28157 10.7136 4.64066 11.3735 3.0584 12.1579V12.1579Z" fill="#1D1D1B"/>
<path d="M44.2295 16.9938C26.3919 13.1419 13.3302 15.5358 13.2162 15.5598L13.1592 15.2598C13.2912 15.2358 26.3919 12.8269 44.2925 16.6938L44.2295 16.9938Z" fill="#1D1D1B"/>
<path d="M49.4553 24.7514C40.118 23.7465 30.7261 23.3397 21.3369 23.5334V23.2334C30.741 23.0397 40.148 23.4465 49.5003 24.4514L49.4553 24.7514Z" fill="#1D1D1B"/>
<path d="M30.4297 32.6353V32.3353C30.5317 32.3353 40.7015 32.1133 45.3064 31.8733V32.1733C40.7165 32.4133 30.5407 32.6323 30.4297 32.6353Z" fill="#1D1D1B"/>
<path d="M5.15516 7.95499L4.99316 7.81699C5.33516 7.424 8.65309 6.01703 9.47207 5.71704L9.54707 5.91504C8.37409 6.35903 5.41916 7.64899 5.15516 7.95499Z" fill="#1D1D1B"/>
<path d="M1.41123 17.6986H1.19824C1.19824 17.3987 2.35622 12.8658 2.81221 12.0198L2.9982 12.1218C2.54521 12.9558 1.42023 17.5187 1.41123 17.6986Z" fill="#1D1D1B"/>
<path d="M11.4254 3.16394L11.3384 2.96894C13.0275 2.25995 14.7846 1.72519 16.5823 1.37298C19.1712 0.913987 20.8302 0.718994 22.3301 0.718994V0.931989C20.8482 0.931989 19.1952 1.11799 16.6303 1.57398C14.8453 1.92374 13.1011 2.45653 11.4254 3.16394V3.16394Z" fill="#1D1D1B"/>
<path d="M15.3727 4.03419L15.1777 3.94419C15.1777 3.92319 16.0777 1.99723 16.3777 1.42725L16.5637 1.52624C16.2787 2.09323 15.3817 4.01919 15.3727 4.03419Z" fill="#1D1D1B"/>
<path d="M21.181 23.2185C21.133 21.3795 21.382 4.31894 22.186 1.16602L22.4859 1.23801C21.688 4.36094 21.442 21.3765 21.493 23.2095L21.181 23.2185Z" fill="#1D1D1B"/>
<path d="M30.7837 32.0266H30.4837C30.6397 9.63809 28.8847 4.34921 28.8667 4.29821L29.1487 4.19922C29.2297 4.40621 30.9426 9.55109 30.7837 32.0266Z" fill="#1D1D1B"/>
<path d="M36.8045 9.46421C35.0046 8.86422 30.0817 8.32723 30.0337 8.32123L30.0637 8.02124C30.2677 8.04224 35.0796 8.56423 36.8975 9.17622L36.8045 9.46421Z" fill="#1D1D1B"/>
<path d="M38.9222 33.3914H38.6222C39.2222 14.9028 36.7413 9.90792 36.7173 9.85992L36.9813 9.72192C37.0863 9.91092 39.5192 14.8188 38.9222 33.3914Z" fill="#1D1D1B"/>
<path d="M45.3303 31.5974L45.0304 31.5734C45.7623 23.3596 44.1304 17.4737 44.1094 17.4257L44.3944 17.3447C44.4154 17.4047 46.0683 23.3266 45.3303 31.5974Z" fill="#1D1D1B"/>
<path d="M7.82202 9.90204L7.62402 9.82104C10.009 3.90818 11.0229 3.24219 11.0649 3.22119L11.1759 3.40119C11.1369 3.41919 10.153 4.12117 7.82202 9.90204Z" fill="#1D1D1B"/>
<path d="M6.38513 6.64384C6.17513 6.42185 5.41915 6.79984 4.69617 7.48682C3.97318 8.17381 3.55619 8.90579 3.76619 9.12779C3.97618 9.34978 4.72916 8.96879 5.45214 8.28481C6.17513 7.60082 6.59212 6.86284 6.38513 6.64384ZM6.91912 9.37378C6.01914 10.2108 5.64714 11.2787 6.09113 11.7557C6.53512 12.2327 7.62709 11.9417 8.52707 11.1017C9.42705 10.2618 9.80205 9.19378 9.35806 8.7018C8.91407 8.20981 7.82209 8.5338 6.91912 9.37378ZM11.56 13.4657C10.234 14.5697 9.88305 16.3366 10.78 17.4136C11.677 18.4906 13.48 18.4666 14.8029 17.3626C16.1259 16.2586 16.4799 14.4917 15.5829 13.4177C14.6859 12.3437 12.886 12.3617 11.56 13.4657ZM14.9139 3.31092C13.759 3.73991 12.985 4.5109 13.183 5.05688C13.381 5.60287 14.4819 5.67487 15.6369 5.24288C16.7919 4.81089 17.5659 4.0429 17.3679 3.49691C17.1699 2.95093 16.0689 2.87893 14.9139 3.31092V3.31092ZM2.35622 11.5727C1.70524 12.4397 1.47124 13.3727 1.83124 13.6337C2.19123 13.8947 3.0132 13.4207 3.66419 12.5507C4.31517 11.6807 4.56417 10.7508 4.18918 10.4898C3.81419 10.2288 3.00721 10.7027 2.35622 11.5727ZM11.194 4.72089C10.957 4.3549 10.012 4.54389 9.09406 5.14388C8.17609 5.74386 7.5941 6.52985 7.83709 6.89584C8.08009 7.26183 9.01907 7.07283 9.93705 6.47285C10.855 5.87286 11.431 5.08688 11.194 4.72089ZM11.59 3.46092C12.49 3.05593 13.09 2.47994 12.967 2.26094C12.844 2.04195 12.046 2.19795 11.167 2.63594C10.288 3.07393 9.66705 3.61691 9.79005 3.83591C9.91305 4.0549 10.198 4.0999 11.59 3.46092V3.46092ZM2.19423 15.7936C1.66624 15.5476 0.841258 16.1986 0.34927 17.2486C-0.142719 18.2986 -0.109719 19.3485 0.415269 19.5945C0.940256 19.8405 1.76823 19.1896 2.25722 18.1396C2.74621 17.0896 2.71921 16.0396 2.19423 15.7936ZM44.5772 21.4365C43.5723 21.6435 43.0113 23.0175 43.3173 24.4994C43.6233 25.9814 44.6912 27.0194 45.6932 26.8094C46.6952 26.5994 47.2592 25.2284 46.9502 23.7434C46.6412 22.2585 45.5792 21.2265 44.5772 21.4365ZM22.1378 4.88888C23.5897 4.76589 24.7147 4.0579 24.6517 3.30792C24.5887 2.55794 23.3587 2.05095 21.9098 2.17095C20.4608 2.29094 19.3328 3.00193 19.3958 3.75191C19.4588 4.50189 20.6858 5.01188 22.1378 4.88888V4.88888ZM22.3838 1.51096C23.4697 1.42696 24.3277 1.05497 24.2977 0.679983C24.2677 0.304991 23.3647 0.0799965 22.2758 0.154995C21.1868 0.229993 20.3318 0.610983 20.3618 0.985975C20.3918 1.36097 21.2948 1.59796 22.3838 1.51096V1.51096ZM21.9878 10.2738C23.6257 10.0698 24.8377 8.96579 24.6877 7.80482C24.5377 6.64384 23.1007 5.86986 21.4628 6.07386C19.8248 6.27785 18.6128 7.38183 18.7628 8.5398C18.9128 9.69777 20.3498 10.4778 21.9878 10.2738V10.2738ZM16.6479 2.14095C17.6799 1.84096 18.4478 1.35797 18.3518 1.03697C18.2558 0.71598 17.3529 0.691982 16.3239 0.979976C15.2949 1.26797 14.5239 1.75995 14.6199 2.08095C14.7159 2.40194 15.6189 2.42894 16.6479 2.14095V2.14095ZM13.405 7.46583C12.259 8.08681 11.659 9.19678 12.064 9.94677C12.469 10.6967 13.729 10.8047 14.8749 10.1838C16.0209 9.56278 16.6209 8.4528 16.2159 7.70282C15.8109 6.95284 14.5509 6.84784 13.405 7.46583V7.46583ZM39.6034 26.9264C41.1243 26.4854 41.9433 24.6854 41.4273 22.9065C40.9113 21.1275 39.2614 20.0415 37.7404 20.4825C36.2194 20.9235 35.4034 22.7205 35.9194 24.4994C36.4354 26.2784 38.0824 27.3644 39.6034 26.9264V26.9264ZM39.4084 28.9903C37.8514 28.6573 36.2704 29.8633 35.8804 31.6903C35.4904 33.5172 36.4354 35.2632 37.9954 35.5902C39.5553 35.9172 41.1333 34.7172 41.5233 32.8902C41.9133 31.0633 40.9683 29.3233 39.4084 28.9903ZM35.8804 10.8047C37.2154 11.6777 38.7304 11.7257 39.2674 10.9067C39.8044 10.0878 39.1564 8.7168 37.8214 7.84082C36.4864 6.96484 34.9715 6.91684 34.4345 7.73582C33.8975 8.5548 34.5455 9.92877 35.8804 10.8047ZM40.1613 18.0736C41.1423 17.1736 40.9713 15.3736 39.7773 14.0987C38.5834 12.8237 36.8224 12.5057 35.8414 13.4177C34.8605 14.3297 35.0315 16.1176 36.2224 17.3956C37.4134 18.6736 39.1804 18.9856 40.1613 18.0736V18.0736ZM45.5222 19.0756C46.2692 18.6496 46.3082 17.3056 45.6092 16.0756C44.9102 14.8457 43.7343 14.1917 42.9843 14.6177C42.2343 15.0436 42.1983 16.3876 42.9003 17.6176C43.6023 18.8476 44.7752 19.5015 45.5222 19.0756ZM50.6221 24.4274C50.4271 23.1285 49.7491 22.1535 49.1071 22.2495C48.4652 22.3455 48.1022 23.4795 48.2972 24.7784C48.4921 26.0774 49.1731 27.0524 49.8151 26.9564C50.4571 26.8604 50.8291 25.7294 50.6341 24.4184L50.6221 24.4274ZM45.6122 28.8853C44.4632 28.6963 43.3083 29.9053 43.0353 31.5853C42.7623 33.2652 43.4733 34.7712 44.6222 34.9572C45.7712 35.1432 46.9262 33.9372 47.1992 32.2572C47.4722 30.5773 46.7732 29.0713 45.6242 28.8853H45.6122ZM29.1126 10.3698C30.7266 10.7657 32.2535 10.1718 32.5295 9.04679C32.8055 7.92181 31.7225 6.68584 30.1116 6.29285C28.5006 5.89986 26.9706 6.49085 26.6947 7.61582C26.4187 8.7408 27.5166 9.97677 29.1276 10.3698H29.1126ZM28.7556 5.00288C30.1956 5.27288 31.4735 4.91888 31.6055 4.2109C31.7375 3.50292 30.6756 2.71093 29.2356 2.43794C27.7956 2.16495 26.5207 2.52494 26.3857 3.23292C26.2507 3.94091 27.3306 4.73589 28.7706 5.00288H28.7556ZM20.9108 12.0917C19.1468 12.4397 17.9679 13.9847 18.2739 15.5386C18.5798 17.0926 20.2598 18.0736 22.0238 17.7256C23.7877 17.3776 24.9697 15.8326 24.6607 14.2787C24.3517 12.7247 22.6898 11.7437 20.9258 12.0917H20.9108ZM19.8728 20.3895C19.2882 20.6855 18.8041 21.1475 18.4811 21.7175C18.158 22.2876 18.0105 22.9404 18.0571 23.5939C18.1036 24.2475 18.3421 24.8728 18.7426 25.3913C19.1431 25.9099 19.6878 26.2986 20.3084 26.5088C20.929 26.719 21.5979 26.7412 22.231 26.5728C22.8642 26.4043 23.4336 26.0526 23.8677 25.5618C24.3018 25.071 24.5812 24.4629 24.6711 23.8139C24.7609 23.1649 24.6571 22.5038 24.3727 21.9135C23.9779 21.1187 23.2848 20.5123 22.4445 20.2268C21.6042 19.9412 20.6851 19.9998 19.8878 20.3895H19.8728ZM28.9686 17.6506C30.6366 18.3856 32.5085 17.8126 33.1445 16.3666C33.7805 14.9207 32.9465 13.1507 31.2756 12.4157C29.6046 11.6807 27.7386 12.2537 27.0996 13.6997C26.4607 15.1456 27.3156 16.9186 28.9836 17.6506H28.9686ZM29.0076 20.4435C28.4068 20.7089 27.8988 21.1476 27.5487 21.7034C27.1987 22.2592 27.0224 22.9068 27.0426 23.5633C27.0627 24.2199 27.2784 24.8555 27.6619 25.3887C28.0454 25.922 28.5793 26.3287 29.1953 26.5567C29.8113 26.7848 30.4813 26.8238 31.1196 26.6688C31.7579 26.5138 32.3354 26.1719 32.7782 25.6868C33.2211 25.2016 33.509 24.5954 33.6053 23.9456C33.7015 23.2959 33.6017 22.6322 33.3185 22.0395C32.9581 21.2603 32.3042 20.6552 31.4994 20.3562C30.6947 20.0572 29.8043 20.0886 29.0226 20.4435H29.0076ZM28.6656 29.7193C28.1183 30.0661 27.6862 30.5674 27.4238 31.1598C27.1615 31.7522 27.0807 32.4091 27.1916 33.0474C27.3026 33.6857 27.6003 34.2768 28.0472 34.7459C28.4941 35.2151 29.07 35.5411 29.7022 35.6829C30.3344 35.8247 30.9944 35.7758 31.5989 35.5425C32.2033 35.3092 32.725 34.9019 33.0979 34.3721C33.4708 33.8423 33.6783 33.2138 33.6941 32.5661C33.7099 31.9184 33.5332 31.2806 33.1865 30.7333C32.7216 30.0034 31.9869 29.4871 31.1426 29.2972C30.2984 29.1072 29.4133 29.2589 28.6806 29.7193H28.6656Z" fill="url(#paint0_linear_360_2945)"/>
<path d="M119.415 61.363C119.62 61.3619 119.82 61.3056 119.996 61.2C120.171 61.0944 120.314 60.9434 120.411 60.763L122.637 56.7011C122.728 56.5348 122.862 56.3961 123.025 56.2995C123.188 56.2029 123.374 56.152 123.564 56.1521H136.404C136.595 56.1517 136.782 56.2034 136.946 56.3018C137.11 56.4001 137.244 56.5413 137.334 56.7101L139.5 60.754C139.596 60.9353 139.74 61.0869 139.916 61.1926C140.092 61.2983 140.293 61.3541 140.499 61.354H140.529C140.725 61.3535 140.918 61.3021 141.088 61.205C141.259 61.1079 141.401 60.9682 141.502 60.7997C141.602 60.6312 141.657 60.4395 141.662 60.2433C141.667 60.0471 141.62 59.853 141.528 59.6801L131.772 41.5065C131.675 41.3254 131.531 41.174 131.355 41.0683C131.179 40.9627 130.978 40.9067 130.773 40.9065H129.201C128.995 40.9061 128.794 40.9618 128.618 41.0675C128.442 41.1732 128.298 41.325 128.202 41.5065L118.416 59.6891C118.323 59.862 118.277 60.0561 118.282 60.2523C118.286 60.4485 118.341 60.6402 118.442 60.8087C118.542 60.9772 118.685 61.1169 118.855 61.214C119.026 61.3111 119.219 61.3625 119.415 61.363V61.363ZM130.008 43.0424L135.06 52.4712C135.146 52.6321 135.19 52.8128 135.186 52.9955C135.182 53.1782 135.13 53.3568 135.037 53.5137C134.943 53.6706 134.81 53.8005 134.651 53.8907C134.492 53.9809 134.312 54.0283 134.13 54.0282H125.844C125.661 54.0285 125.481 53.9812 125.321 53.8909C125.162 53.8006 125.029 53.6703 124.935 53.5129C124.841 53.3556 124.79 53.1765 124.786 52.9934C124.782 52.8102 124.826 52.6292 124.914 52.4682L130.008 43.0424Z" fill="black"/>
<path d="M165.914 44.9775C166.849 44.1652 167.929 43.5371 169.097 43.1265C170.423 42.6611 171.82 42.4326 173.225 42.4515C176.798 42.4515 179.633 43.4445 181.643 45.4034C181.741 45.4978 181.857 45.5718 181.984 45.6213C182.111 45.6708 182.247 45.6947 182.383 45.6918C182.52 45.6889 182.654 45.6591 182.779 45.6043C182.904 45.5494 183.017 45.4704 183.111 45.3719C183.205 45.2734 183.279 45.1573 183.329 45.0302C183.378 44.9031 183.402 44.7675 183.399 44.6312C183.396 44.4948 183.367 44.3604 183.312 44.2355C183.257 44.1107 183.178 43.9978 183.079 43.9035C182.044 42.8993 180.833 42.093 179.507 41.5245C177.512 40.6942 175.367 40.2857 173.207 40.3246C171.588 40.3126 169.978 40.5649 168.44 41.0715C167.039 41.5339 165.729 42.2375 164.57 43.1505C163.353 44.0894 162.374 45.3002 161.709 46.686C161.045 48.0718 160.715 49.5939 160.745 51.1303C160.708 52.6743 161.032 54.2056 161.69 55.6027C162.348 56.9999 163.323 58.2244 164.537 59.1791C165.69 60.0947 167.002 60.7894 168.407 61.2281C169.958 61.7222 171.578 61.9682 173.207 61.9571C175.673 61.9571 177.815 61.6001 179.567 60.8951C180.893 60.369 182.099 59.5779 183.109 58.5701C183.22 58.4596 183.304 58.3255 183.356 58.1778C183.407 58.0301 183.424 57.8727 183.406 57.7173C183.388 57.562 183.335 57.4128 183.251 57.281C183.167 57.1492 183.054 57.0381 182.92 56.9562L182.791 56.8752C182.595 56.7539 182.363 56.7019 182.133 56.7275C181.903 56.753 181.688 56.8546 181.523 57.0162C180.618 57.8955 179.543 58.5796 178.364 59.0261C176.712 59.5985 174.972 59.8728 173.225 59.8361C171.827 59.8512 170.437 59.628 169.115 59.1761C167.946 58.7775 166.86 58.1674 165.911 57.3762C165.04 56.6426 164.338 55.7298 163.853 54.7002C163.365 53.6509 163.117 52.5063 163.127 51.3493C163.114 50.1233 163.361 48.9085 163.853 47.7854C164.33 46.7121 165.033 45.7543 165.914 44.9775V44.9775Z" fill="black"/>
<path d="M152.051 60.247V42.0254C152.051 41.7294 151.934 41.4456 151.724 41.2363C151.515 41.027 151.231 40.9094 150.935 40.9094C150.639 40.9094 150.355 41.027 150.146 41.2363C149.937 41.4456 149.819 41.7294 149.819 42.0254V60.247C149.819 60.543 149.937 60.8268 150.146 61.0361C150.355 61.2454 150.639 61.363 150.935 61.363C151.231 61.363 151.515 61.2454 151.724 61.0361C151.934 60.8268 152.051 60.543 152.051 60.247V60.247Z" fill="black"/>
<path d="M44.5813 40.9094H43.1353C42.9657 40.9088 42.7983 40.9472 42.6459 41.0216C42.4935 41.0959 42.3602 41.2043 42.2563 41.3384L33.0885 53.0921C32.9921 53.2166 32.8684 53.3173 32.727 53.3865C32.5855 53.4557 32.43 53.4915 32.2726 53.4911V53.4911C32.1151 53.4912 31.9597 53.4554 31.8183 53.3862C31.6769 53.3171 31.5531 53.2165 31.4566 53.0921L22.2258 41.3264C22.1212 41.1934 21.9877 41.0859 21.8354 41.0121C21.6831 40.9383 21.516 40.9001 21.3468 40.9004H19.9338C19.6381 40.9012 19.3547 41.019 19.1456 41.2281C18.9365 41.4372 18.8187 41.7206 18.8179 42.0164V60.238C18.8179 60.5339 18.9354 60.8178 19.1447 61.0271C19.354 61.2364 19.6379 61.3539 19.9338 61.3539C20.2298 61.3539 20.5137 61.2364 20.723 61.0271C20.9322 60.8178 21.0498 60.5339 21.0498 60.238V43.0423L31.3876 56.347C31.4913 56.4815 31.6245 56.5903 31.7768 56.6652C31.9292 56.7401 32.0968 56.7791 32.2666 56.779V56.779C32.4361 56.7796 32.6036 56.7413 32.756 56.6669C32.9084 56.5925 33.0417 56.4841 33.1455 56.35L43.4473 43.2073V60.247C43.4473 60.3935 43.4762 60.5386 43.5322 60.674C43.5883 60.8094 43.6705 60.9324 43.7742 61.0361C43.8778 61.1397 44.0008 61.2219 44.1362 61.278C44.2716 61.3341 44.4167 61.3629 44.5633 61.3629C44.7098 61.3629 44.8549 61.3341 44.9903 61.278C45.1257 61.2219 45.2488 61.1397 45.3524 61.0361C45.456 60.9324 45.5382 60.8094 45.5943 60.674C45.6504 60.5386 45.6792 60.3935 45.6792 60.247V42.0254C45.6785 41.7327 45.5632 41.452 45.3579 41.2434C45.1527 41.0348 44.8739 40.9149 44.5813 40.9094V40.9094Z" fill="black"/>
<path d="M76.5638 43.1265C75.4025 42.195 74.0809 41.4833 72.6639 41.0266C69.5763 40.0305 66.2537 40.0305 63.1661 41.0266C61.7493 41.4836 60.4277 42.1953 59.2662 43.1265C58.0394 44.0661 57.0511 45.2814 56.3813 46.674C55.7116 48.0666 55.3793 49.5974 55.4113 51.1423C55.3799 52.6881 55.709 54.2199 56.3724 55.6165C57.0357 57.013 58.0152 58.2359 59.2332 59.1882C60.3937 60.1007 61.7043 60.8042 63.1061 61.2671C64.6549 61.7753 66.2761 62.0275 67.906 62.0141C69.5396 62.0272 71.1649 61.7801 72.7209 61.2821C74.1342 60.8351 75.4553 60.1369 76.6208 59.2212C77.8408 58.2633 78.8213 57.0347 79.4846 55.6325C80.148 54.2304 80.476 52.6931 80.4427 51.1423C80.4547 47.8904 79.1467 45.1965 76.5638 43.1265ZM78.0638 51.3583C78.0782 52.515 77.8376 53.6606 77.359 54.7137C76.8805 55.7668 76.1757 56.7014 75.2948 57.4512C74.3514 58.2448 73.2649 58.8507 72.0939 59.2362C70.7521 59.6794 69.3461 59.8974 67.933 59.8811C66.5248 59.8986 65.1235 59.6806 63.7871 59.2362C62.6253 58.8506 61.5458 58.2513 60.6042 57.4692C59.7248 56.7287 59.0204 55.8026 58.5416 54.7574C58.0628 53.7122 57.8216 52.5739 57.8352 51.4243C57.8234 50.1869 58.0707 48.9606 58.5612 47.8244C59.0357 46.7358 59.7385 45.7618 60.6222 44.9685C61.5559 44.1383 62.642 43.4975 63.8201 43.0815C66.4865 42.1775 69.3765 42.1775 72.0429 43.0815C73.219 43.4953 74.3055 44.1296 75.2438 44.9505C76.1308 45.739 76.8395 46.7075 77.3228 47.7914C77.8169 48.913 78.0674 50.1268 78.0578 51.3523L78.0638 51.3583Z" fill="black"/>
<path d="M107.952 50.5965C106.783 50.1282 105.546 49.8488 104.289 49.7685C102.9 49.6545 101.289 49.5615 99.5103 49.4865C98.2233 49.4295 97.0833 49.3365 96.1234 49.2045C95.3025 49.1098 94.4965 48.9143 93.7234 48.6225C93.1778 48.4238 92.6937 48.0856 92.3195 47.6416C91.9976 47.2006 91.8357 46.663 91.8605 46.1176C91.8605 44.9176 92.4844 44.0177 93.7654 43.3547C95.0464 42.6917 97.0113 42.3287 99.5523 42.3287C101.035 42.3254 102.514 42.4854 103.962 42.8057C105.124 43.081 106.252 43.4834 107.325 44.0057C107.55 44.1122 107.802 44.1441 108.046 44.0966C108.29 44.0491 108.513 43.9247 108.681 43.7417V43.7417C108.793 43.6207 108.874 43.4757 108.92 43.3178C108.966 43.1599 108.975 42.9935 108.946 42.8316C108.917 42.6698 108.851 42.5168 108.753 42.3848C108.655 42.2528 108.528 42.1453 108.381 42.0707C107.351 41.5221 106.255 41.1058 105.12 40.8317C103.251 40.4389 101.345 40.2458 99.4353 40.2557C96.2014 40.2557 93.6994 40.7897 91.9985 41.8427C90.2975 42.8957 89.3975 44.4136 89.3975 46.3036C89.362 47.2355 89.6305 48.1536 90.1625 48.9195C90.7619 49.6771 91.5718 50.2407 92.4904 50.5395C93.5873 50.9306 94.7333 51.1669 95.8954 51.2415C97.1853 51.3435 98.7063 51.4335 100.419 51.5085C101.641 51.5482 102.86 51.6544 104.07 51.8265C104.948 51.9443 105.806 52.1731 106.626 52.5075C107.213 52.7377 107.726 53.1248 108.108 53.6264C108.443 54.1386 108.61 54.7428 108.585 55.3544C108.585 56.7734 107.877 57.8623 106.422 58.6843C104.967 59.5063 102.783 59.9353 99.9633 59.9353C98.2578 59.9057 96.5614 59.6782 94.9084 59.2573C93.5494 58.9393 92.0165 58.1413 91.0655 57.5923C90.8125 57.4462 90.5138 57.4005 90.2287 57.4645C89.9436 57.5284 89.6929 57.6972 89.5265 57.9373V57.9373C89.4431 58.0569 89.3852 58.1925 89.3566 58.3355C89.3279 58.4785 89.3291 58.6259 89.3601 58.7684C89.3911 58.9109 89.4512 59.0454 89.5366 59.1637C89.622 59.2819 89.7309 59.3811 89.8565 59.4553C91.167 60.2224 92.5704 60.8182 94.0324 61.2283C96.096 61.7698 98.2229 62.0322 100.356 62.0082C103.818 62.0082 106.485 61.4082 108.291 60.2503C110.097 59.0923 111.045 57.3973 111.045 55.2824C111.039 53.0624 110.001 51.4875 107.952 50.5965Z" fill="black"/>
<path d="M212.137 43.1265C210.975 42.1953 209.654 41.4836 208.237 41.0266C205.149 40.0305 201.827 40.0305 198.739 41.0266C197.322 41.4827 196 42.1944 194.839 43.1265C193.611 44.0655 192.622 45.2806 191.952 46.6733C191.282 48.066 190.949 49.5971 190.981 51.1423C190.95 52.6884 191.28 54.2204 191.944 55.6169C192.607 57.0135 193.588 58.2362 194.806 59.1882C195.965 60.1013 197.275 60.8048 198.676 61.2671C200.225 61.7753 201.846 62.0275 203.476 62.0141C205.104 62.0258 206.725 61.7787 208.276 61.2821C209.69 60.8364 211.011 60.1381 212.176 59.2212C213.396 58.2638 214.377 57.0353 215.04 55.633C215.704 54.2307 216.032 52.6932 215.998 51.1423C216.025 47.8904 214.717 45.1965 212.137 43.1265ZM213.637 51.3583C213.653 52.5153 213.413 53.6615 212.934 54.7149C212.456 55.7682 211.75 56.7027 210.868 57.4512C209.924 58.2448 208.838 58.8507 207.667 59.2362C206.325 59.6776 204.919 59.8935 203.506 59.8751C202.098 59.8924 200.696 59.6744 199.36 59.2302C198.198 58.8439 197.119 58.2447 196.177 57.4632C195.299 56.7219 194.595 55.7956 194.116 54.7506C193.637 53.7056 193.396 52.5677 193.408 51.4183C193.396 50.1809 193.644 48.9546 194.134 47.8184C194.609 46.7298 195.311 45.7558 196.195 44.9625C197.13 44.1323 198.217 43.4914 199.396 43.0755C202.062 42.1715 204.952 42.1715 207.619 43.0755C208.794 43.4899 209.879 44.1242 210.817 44.9445C211.704 45.733 212.412 46.7015 212.896 47.7854C213.39 48.9091 213.639 50.1249 213.628 51.3523L213.637 51.3583Z" fill="black"/>
<path d="M69.328 19.2232C69.7879 19.3888 70.2073 19.6506 70.558 19.9911C70.9012 20.3293 71.1654 20.739 71.332 21.1911C71.5177 21.7054 71.6082 22.2493 71.599 22.7961C71.6074 23.3259 71.5106 23.852 71.314 24.344C71.1325 24.7973 70.8492 25.2027 70.486 25.529C70.103 25.8679 69.6548 26.1251 69.169 26.285C68.6031 26.4718 68.0099 26.562 67.4141 26.552H59.1523V31.8409H58.0093V18.9412H67.7321C68.2765 18.9406 68.8168 19.036 69.328 19.2232ZM69.613 24.749C69.8592 24.4807 70.0485 24.1654 70.1697 23.8221C70.2908 23.4787 70.3413 23.1144 70.318 22.7511C70.318 20.9511 69.279 20.0511 67.2011 20.0511H59.1523V25.451H67.6271C67.9884 25.475 68.3508 25.4251 68.6923 25.3044C69.0337 25.1837 69.347 24.9947 69.613 24.749V24.749Z" fill="#E94E1B"/>
<path d="M88.2694 31.85L84.2255 26.5611H77.1907V31.85H76.0327V18.9503H85.7585C86.307 18.9434 86.8525 19.0338 87.3695 19.2173C87.8301 19.3839 88.2488 19.6491 88.5964 19.9943C88.9396 20.34 89.2045 20.7554 89.3734 21.2123C89.5565 21.7211 89.6469 22.2585 89.6404 22.7992C89.6404 23.9152 89.3074 24.7962 88.6414 25.4422C87.9754 26.0882 87.0145 26.4591 85.7585 26.5551L89.6764 31.844L88.2694 31.85ZM87.6545 24.7492C87.9001 24.4807 88.0889 24.1652 88.2095 23.8219C88.3301 23.4786 88.3801 23.1144 88.3564 22.7512C88.3564 20.9513 87.3185 20.0513 85.2425 20.0513H77.1907V25.4512H85.6685C86.0298 25.4749 86.3922 25.425 86.7336 25.3043C87.075 25.1836 87.3883 24.9947 87.6545 24.7492V24.7492Z" fill="#E94E1B"/>
<path d="M110.031 25.3848C110.054 26.3593 109.849 27.3256 109.432 28.2069C109.015 29.0881 108.399 29.8598 107.631 30.4607C106.918 31.0379 106.104 31.4792 105.231 31.7627C103.279 32.3805 101.184 32.3805 99.2314 31.7627C98.3582 31.4799 97.5446 31.0385 96.8314 30.4607C96.0857 29.8416 95.4865 29.0649 95.077 28.1864C94.6676 27.3079 94.458 26.3495 94.4635 25.3803C94.4689 24.4111 94.6892 23.4552 95.1086 22.5814C95.5279 21.7075 96.1358 20.9376 96.8884 20.3269C97.6006 19.7433 98.4142 19.2959 99.2884 19.007C101.211 18.3909 103.278 18.3909 105.201 19.007C106.075 19.2959 106.889 19.7433 107.601 20.3269C108.372 20.9225 108.993 21.69 109.415 22.5681C109.837 23.4462 110.048 24.4107 110.031 25.3848V25.3848ZM108.801 25.3848C108.817 24.5527 108.634 23.7288 108.269 22.9809C107.904 22.233 107.367 21.5825 106.701 21.0829C106.1 20.616 105.422 20.2576 104.697 20.0239C103.116 19.516 101.416 19.516 99.8344 20.0239C99.1108 20.2577 98.4336 20.6161 97.8334 21.0829C97.1696 21.5832 96.6344 22.2343 96.2719 22.9823C95.9093 23.7303 95.7299 24.5538 95.7485 25.3848C95.7377 26.1885 95.8951 26.9855 96.2105 27.7248C96.5127 28.4145 96.9634 29.0291 97.5304 29.5247C98.13 30.0479 98.8289 30.4448 99.5854 30.6917C100.451 30.9742 101.357 31.112 102.267 31.0997C103.177 31.1122 104.083 30.9712 104.946 30.6827C105.701 30.4309 106.4 30.0357 107.004 29.5187C107.572 29.0228 108.025 28.4084 108.33 27.7188C108.649 26.9856 108.81 26.1933 108.801 25.3938V25.3848Z" fill="#E94E1B"/>
<path d="M122.472 31.1268C121.574 31.8608 120.235 32.2287 118.455 32.2307C116.793 32.2307 115.538 31.8718 114.69 31.1538C113.842 30.4358 113.417 29.3938 113.415 28.0279H114.501C114.513 29.1318 114.828 29.9248 115.446 30.4068C116.064 30.8888 117.037 31.1288 118.365 31.1268C119.013 31.1354 119.66 31.0792 120.297 30.9588C120.778 30.8711 121.235 30.6797 121.635 30.3978C121.982 30.1403 122.25 29.7912 122.409 29.3898C122.588 28.9032 122.672 28.387 122.658 27.8689V18.9561H123.816V27.8449C123.816 29.2928 123.368 30.3868 122.472 31.1268Z" fill="#E94E1B"/>
<path d="M129.888 31.8499V18.9502H141.908V20.0542H131.046V24.4731H138.597V25.577H131.046V30.7399H142.409V31.8439L129.888 31.8499Z" fill="#E94E1B"/>
<path d="M152.843 20.06V31.8498H151.685V20.06H145.523V18.9561H159.005V20.06H152.843Z" fill="#E94E1B"/>
<path d="M176.852 25.3847C176.874 26.3592 176.669 27.3255 176.252 28.2066C175.836 29.0878 175.219 29.8596 174.452 30.4606C173.739 31.0384 172.925 31.4798 172.052 31.7626C170.099 32.3799 168.004 32.3799 166.052 31.7626C165.178 31.4808 164.365 31.0393 163.652 30.4606C162.904 29.8449 162.301 29.0709 161.888 28.1944C161.475 27.3179 161.262 26.3607 161.263 25.3917C161.265 24.4227 161.481 23.4661 161.897 22.5908C162.312 21.7155 162.917 20.9433 163.667 20.3299C164.379 19.7463 165.193 19.2988 166.067 19.0099C167.99 18.3938 170.057 18.3938 171.98 19.0099C172.854 19.2983 173.668 19.7458 174.38 20.3299C175.158 20.9209 175.787 21.686 176.216 22.5638C176.645 23.4416 176.863 24.4077 176.852 25.3847V25.3847ZM175.622 25.3847C175.637 24.5527 175.455 23.7289 175.09 22.981C174.725 22.2331 174.187 21.5826 173.522 21.0828C172.922 20.616 172.244 20.2576 171.521 20.0239C169.94 19.5159 168.239 19.5159 166.658 20.0239C165.933 20.2576 165.255 20.616 164.654 21.0828C163.987 21.5816 163.449 22.2319 163.084 22.98C162.719 23.7281 162.537 24.5524 162.554 25.3847C162.544 26.1886 162.703 26.9857 163.019 27.7247C163.32 28.4145 163.77 29.0292 164.336 29.5246C164.937 30.0479 165.637 30.4448 166.394 30.6916C167.258 30.9739 168.164 31.1118 169.073 31.0996C169.984 31.1122 170.891 30.9712 171.755 30.6826C172.508 30.4308 173.206 30.0356 173.81 29.5186C174.379 29.0229 174.832 28.4085 175.139 27.7187C175.461 26.986 175.625 26.194 175.622 25.3937V25.3847Z" fill="#E94E1B"/>
<defs>
<linearGradient id="paint0_linear_360_2945" x1="47.3822" y1="35.5242" x2="5.83613" y2="3.46693" gradientUnits="userSpaceOnUse">
<stop stop-color="#3973B8"/>
<stop offset="0.08" stop-color="#3D70B7"/>
<stop offset="0.16" stop-color="#4968B3"/>
<stop offset="0.24" stop-color="#5D5BAC"/>
<stop offset="0.31" stop-color="#7948A2"/>
<stop offset="0.39" stop-color="#9E3096"/>
<stop offset="0.47" stop-color="#CA1287"/>
<stop offset="0.51" stop-color="#E5007E"/>
<stop offset="0.53" stop-color="#E60978"/>
<stop offset="0.7" stop-color="#EF5445"/>
<stop offset="0.84" stop-color="#F58A20"/>
<stop offset="0.94" stop-color="#F9AC09"/>
<stop offset="1" stop-color="#FAB900"/>
</linearGradient>
</defs>
</svg>
