<svg id="Layer_1" data-name="Layer 1" xmlns="http://www.w3.org/2000/svg" viewBox="0 0 368.45 141.04"><defs><style>.cls-1{fill:#001f54;}.cls-2{fill:#ea7500;}</style></defs><title>Artboard 1</title><path class="cls-1" d="M161.55,14.7H218a3.29,3.29,0,0,1,1,0c.3.15.2.39.2.78V31.86l10.38-1.57,5.54-.87a53.51,53.51,0,0,0,5.34-.87c1.58-.41,1-2.47,1-3.75,0-1.81.07-3.62.06-5.44A42.17,42.17,0,0,0,240.41,8.8a14.29,14.29,0,0,0-2.07-4.71,36.46,36.46,0,0,0-3.77-4h26.11c0,.37-1,.75-1.29,1a11.53,11.53,0,0,0-1.67,1.53,12.56,12.56,0,0,0-2.11,3.32,27.84,27.84,0,0,0-1.89,8.84c-.34,3.8-.29,7.65-.26,11.46A72.47,72.47,0,0,0,254,37.55c.52,3,1.24,6.2,3.15,8.67a13.39,13.39,0,0,0,6.39,4.34c7.08,2.42,14.78,1.82,22.14,1.82h48.16c.63,0,.72-.11.72.6V72.35c0,.53.13.48-.4.59a15.19,15.19,0,0,1-2.78,0H270.2c-.65,0-.8.15-.8-.58V62.5c-3.17.62-6.34,1.24-9.51,1.88l-4.82,1a35.5,35.5,0,0,0-4.61.93c-1.22.42-.87,1.86-.85,2.9,0,1.65.1,3.3.25,5a27.36,27.36,0,0,0,1.91,8.28,12.12,12.12,0,0,0,5.45,6H234.39c.09-.41,1.2-.9,1.55-1.19a11.19,11.19,0,0,0,1.83-1.81A13.45,13.45,0,0,0,240,81.28c1.25-3.68,1.33-7.68,1.46-11.52.07-2.18.14-4.35.12-6.53,0-1.39.27-3.15-.13-4.51-.25-.83-1-1-1.75-1.2-1.91-.44-3.85-.77-5.77-1.16l-14.62-2.94V71.16a7,7,0,0,1,0,1.77c-.2.16-1.33,0-1.59,0H163.13a6,6,0,0,1-1.58,0c-.22-.26,0-1.63,0-2V14.7Z"/><path class="cls-1" d="M118.27,0h25.47c.37,0,2.62-.12,2.55.2,0,.14-.64.42-.8.53a11.45,11.45,0,0,0-1.17.91,11.8,11.8,0,0,0-2.72,3.55c-1.56,3.07-2,6.69-2.3,10.09-.34,4.24-.15,8.56-.16,12.82s0,8.64,0,13q0,12.76,0,25.52c0,7.52-.21,17.78,7.49,21.87H118.48c0-.39,1-.77,1.28-1a11.74,11.74,0,0,0,1.68-1.55,12.88,12.88,0,0,0,2.15-3.48,29.1,29.1,0,0,0,1.83-9c.3-3.9.2-7.84.21-11.75s0-7.81,0-11.72q0-6.57,0-13.13H71.3a6.91,6.91,0,0,0-2,0h-.4v15.6a4.16,4.16,0,0,0,0,.79c.1.11,1,0,1.18,0h33.11c.59,0,.47-.15.6.4a9.46,9.46,0,0,1,0,2V71.34a4.74,4.74,0,0,1,0,1.19v.39H38.45a4.38,4.38,0,0,1-1.2,0c-.5-.17-.22.31-.4-.39a9.55,9.55,0,0,1,0-2V15.92a4.81,4.81,0,0,1,0-1.2,4.27,4.27,0,0,1,.8,0h64.43c.29,0,1.6-.2,1.79,0s0,1.9,0,2.26V24.6l19.55-3.43c.56-.09,1.94-.13,2.14-.56a3.94,3.94,0,0,0,0-1.14c0-.44,0-.88,0-1.32a30.41,30.41,0,0,0-.46-4.86,28.64,28.64,0,0,0-1.82-7.82C122.29,3.2,120.14,1.59,118.27,0Z"/><path class="cls-1" d="M273.13,33.66V14.82c-.13-.4,0-.53.4-.4a7.64,7.64,0,0,1,2,0h57c.79,0,.79-.07.79.72v9.27l11.52-2.62,5.73-1.33a4.77,4.77,0,0,0,2.17-.71c.61-.55.39-1.59.4-2.35,0-6.54-1.33-13.92-7.58-17.3H368s.05,88.27,0,88.33-20.83,0-20.83,0,1.39-1.05,1.77-1.37a11.3,11.3,0,0,0,1.76-1.83,14.36,14.36,0,0,0,2.18-4.29,40.52,40.52,0,0,0,1.52-12.1c0-4.57,0-9.14-.09-13.71-.13-4.32-.47-8.78-2.19-12.82-3.1-7.27-12.6-8.55-19.55-8.57q-14,0-28.09-.05Z"/><path class="cls-2" d="M21.36,88.45H.87V.1H15.41a37.79,37.79,0,0,1,6,.12c-4.27,2.84-6.09,7.42-6.63,12.35-.69,6.36-.44,12.86-.45,19.25,0,6.69,0,13.39,0,20.08s-.18,13.5.12,20.22C14.72,78.07,16,85,21.36,88.45Z"/><path class="cls-1" d="M96.92,125.94V107.06H98.8a5.87,5.87,0,0,1,1.51,0q.59-.19.39.39v24.74q-1.74,0-3.48,0c-.35,0-1.21.15-1.51,0s-.32-.54-.42-.7l-1-1.63q-3.31-5.52-6.61-11.07l-1.83-3.1A17.59,17.59,0,0,0,84.2,113v18.37c0,.4.11.63-.18.78a3.15,3.15,0,0,1-.92,0H81.23c-.75,0-.77.1-.77-.61v-23.9c0-.47-.11-.47.24-.58A4.94,4.94,0,0,1,82,107h1.89c.38,0,1-.13,1.27.09a4.78,4.78,0,0,1,.7,1.13l1.32,2.12,3.65,5.87Z"/><path class="cls-1" d="M208.87,132.2h-5.55l-7.55-10.85v10.85h-4.06V106.85h.38s5.62-.12,7.27,0c2.23.17,4.86.57,6.4,2.37a7.29,7.29,0,0,1,1.09,6.75c-1,3-3.57,3.91-6.28,4.88Zm-9.81-14a5,5,0,0,0,2.91-1.5,4.18,4.18,0,0,0,.12-5.19c-1.45-1.68-4.4-1.23-6.37-1.33l.09,8.08Z"/><path class="cls-1" d="M228.52,107.06h4.15s.05,8.66,0,13c0,2.61-.56,6.2,1.78,8.07,1.77,1.43,4.84,1.33,6.89.64,3.17-1.08,3-4.67,3-7.41,0-4.75,0-14.29,0-14.29h4v1.43c0,.78,0,1.56,0,2.34,0,2.74,0,5.47,0,8.2,0,3.62.33,7.9-2.34,10.77-2.41,2.6-6.47,3-9.79,2.62-2-.26-4.21-.73-5.7-2.25a7.71,7.71,0,0,1-1.89-5.17C228.36,119,228.52,107.06,228.52,107.06Z"/><path class="cls-1" d="M121.83,131.87l.42-3.71a23,23,0,0,0,5.7.76c1.47-.11,3.31-.39,4.11-1.78a3.6,3.6,0,0,0-.15-3.89c-1-1.24-3-1.86-4.48-2.46-2.73-1.15-5.56-2.63-5.91-5.92a7.23,7.23,0,0,1,3.32-6.92c2.82-1.71,6.71-1.64,9.82-.91.69.16.48.39.41,1l-.13,1.28a3.59,3.59,0,0,1-.08.71c-.2.44.28.23-.42.32a7.7,7.7,0,0,1-1.51-.13c-1.8-.15-3.82-.52-5.47.4a3.11,3.11,0,0,0-1.58,3.27c.3,1.53,1.68,2.27,3,2.89,2.67,1.28,6.26,2.15,7.61,5.08a7.28,7.28,0,0,1-2.16,8.52C130.75,133.13,125.91,132.9,121.83,131.87Z"/><path class="cls-1" d="M17.76,128a.12.12,0,0,1-.07-.13A7.17,7.17,0,0,1,18,129.5a5.89,5.89,0,0,1,.23,1.24c0,.61-.34.78-.9.93a20.33,20.33,0,0,1-10.1.23C-.11,130-1.14,120.48,1,114.35A10.89,10.89,0,0,1,6.33,108a15.87,15.87,0,0,1,10.61-.76,3.08,3.08,0,0,1,.75.21c.44.24.27-.11.32.49a7.18,7.18,0,0,1-.23,1.45,6,6,0,0,1-.21,1.35c-.17.41.2.23-.42.27a4.66,4.66,0,0,1-.91-.14,19.24,19.24,0,0,0-5.4-.42A7,7,0,0,0,5,115.72C4,119.21,4.13,124.28,7,127S14.21,128.47,17.76,128Z"/><path class="cls-1" d="M321,100.6l1.27.89c.56.39.71.37.33,1a5.41,5.41,0,0,1-1.29,1.45,4.46,4.46,0,0,1-3.58.86c-1.37-.26-2.32-1.38-3.63-1.69a1.76,1.76,0,0,0-1.42.28,6.49,6.49,0,0,0-.86.71c-.47.43-.43.56-1,.19a5.89,5.89,0,0,1-1.08-.74c-.34-.08-.4-.24-.18-.47a4.08,4.08,0,0,1,.29-.5,5,5,0,0,1,1.35-1.44,4.48,4.48,0,0,1,3.59-.67c1.31.31,2.27,1.42,3.56,1.7C319.49,102.4,320.31,101.33,321,100.6Z"/><path class="cls-1" d="M276.93,140.94c1.62-1.88,2.3-4.06.49-6.09l2.38-.82.64-.22c.25-.19.43-.14.53.17a2.79,2.79,0,0,1,.54.85,4.71,4.71,0,0,1-.13,4.35A3,3,0,0,1,280,140.8,7.1,7.1,0,0,1,276.93,140.94Z"/><path class="cls-1" d="M360.44,107.27a11.16,11.16,0,0,0-7.78,0c-5.42,1.87-8.16,7.19-8,12.73,0,3.26.5,6.6,2.72,9.15a10.49,10.49,0,0,0,6.79,3.4,42,42,0,0,0,4.76,0,10.47,10.47,0,0,0,6.79-3.4c2.22-2.55,2.72-5.89,2.72-9.15C368.6,114.46,365.86,109.14,360.44,107.27Zm2.79,17.41a7.39,7.39,0,0,1-13.36,0c-1.45-3.68-1.5-8.51,1-11.79a7.42,7.42,0,0,1,11.37,0C364.73,116.17,364.68,121,363.23,124.68Z"/><path class="cls-1" d="M52.35,107.27a13,13,0,0,0-3.88-.7,13.1,13.1,0,0,0-3.89.7c-5.42,1.87-8.16,7.19-8,12.73,0,3.26.5,6.6,2.72,9.15a10.47,10.47,0,0,0,6.78,3.4,42.17,42.17,0,0,0,4.77,0,10.49,10.49,0,0,0,6.79-3.4c2.22-2.55,2.72-5.89,2.72-9.15C60.51,114.46,57.77,109.14,52.35,107.27Zm2.8,17.41a6.85,6.85,0,0,1-6.68,4.23,6.83,6.83,0,0,1-6.69-4.23c-1.45-3.68-1.49-8.51,1-11.79a7.42,7.42,0,0,1,11.37,0C56.64,116.17,56.6,121,55.15,124.68Z"/><polygon class="cls-1" points="172 107.08 154.15 107.08 154.15 110.5 161.01 110.5 161.01 132.12 165.11 132.12 165.11 110.5 172 110.5 172 107.08"/><path class="cls-1" d="M278.43,128.79a6.64,6.64,0,0,1-4.22-4.08,12.91,12.91,0,0,1-.68-5.07,12.91,12.91,0,0,1,.68-5.07,6.64,6.64,0,0,1,4.22-4.08c2.65-.84,5.39-.08,8,.38l.57-3.35c-4-1.27-9.14-1.23-12.77.94a11.47,11.47,0,0,0-5.17,8.67,22.66,22.66,0,0,0,0,5,11.48,11.48,0,0,0,5.17,8.67c3.63,2.16,8.8,2.2,12.77.93l-.57-3.35C283.82,128.87,281.08,129.64,278.43,128.79Z"/><path class="cls-1" d="M318.38,107.1h-5l-8.76,25.1h4.48l1.73-5.56h10.06l1.73,5.56h4.49Zm-2.45,4.63,4,11.57h-8.08l4-11.57Z"/></svg>