<svg width="217" height="48" fill="none" xmlns="http://www.w3.org/2000/svg"><path d="M45.076 39.715h4.937v.465H45.59v2.748h3.975v.465h-3.975v2.793h4.471v.465h-4.986v-6.94.004zM63.217 39.715h.487l4.788 6.038v-6.038h.496v6.94H68.6l-4.887-6.164v6.164h-.496v-6.94zM85.716 46.773c-.55 0-1.037-.095-1.47-.285a3.263 3.263 0 01-1.097-.767 3.479 3.479 0 01-.686-1.132 4.002 4.002 0 01-.24-1.381v-.018c0-.47.082-.92.244-1.354.163-.433.393-.812.695-1.146.303-.33.664-.596 1.088-.794a3.279 3.279 0 011.408-.298c.284 0 .541.018.776.058.234.04.451.1.654.18.203.082.393.177.573.29.18.112.357.239.528.388l-.338.388a3.695 3.695 0 00-.925-.596c-.348-.158-.781-.24-1.304-.24-.425 0-.808.082-1.16.25a2.8 2.8 0 00-.907.671 3.115 3.115 0 00-.591.989c-.14.374-.208.771-.208 1.187v.018c0 .446.068.866.203 1.245.136.384.334.713.591.988.258.276.569.497.939.655.365.158.78.239 1.245.239a3.558 3.558 0 001.246-.235 3.85 3.85 0 00.532-.253c.167-.094.312-.194.438-.302v-1.985h-2.32v-.465h2.816v2.667a4.681 4.681 0 01-1.173.726 3.77 3.77 0 01-1.552.312h-.005zM101.804 39.715h4.936v.465h-4.422v2.748h3.976v.465h-3.976v2.793h4.472v.465h-4.986v-6.94.004zM119.935 39.715h.487l4.788 6.038v-6.038h.496v6.94h-.388l-4.887-6.164v6.164h-.496v-6.94zM139.267 39.715h.514v3.222h4.44v-3.222h.515v6.94h-.515v-3.253h-4.44v3.253h-.514v-6.94zM160.923 39.665h.496l3.231 6.99h-.564l-.88-1.945h-4.093l-.88 1.945h-.537l3.231-6.99h-.004zm2.062 4.58l-1.823-4.016-1.832 4.017h3.66-.005zM177.605 39.715h2.916c.428 0 .807.063 1.141.185.334.122.6.289.813.5.166.168.293.357.388.583.09.221.139.456.139.708v.018c0 .29-.049.551-.153.777-.104.23-.244.424-.429.59-.18.168-.397.299-.645.402a3.264 3.264 0 01-.808.212l2.288 2.965h-.654l-2.211-2.874h-2.27v2.874h-.515v-6.94zm2.857 3.596c.289 0 .559-.036.808-.108.248-.072.46-.176.64-.311a1.422 1.422 0 00.574-1.169v-.018c0-.47-.172-.844-.519-1.115-.348-.27-.84-.406-1.471-.406h-2.37v3.132h2.338v-.005zM196.342 39.715h.514v6.94h-.514v-6.94zM213.124 39.665h.496l3.231 6.99h-.564l-.88-1.945h-4.093l-.88 1.945h-.537l3.231-6.99h-.004zm2.062 4.58l-1.823-4.016-1.832 4.017h3.66-.005z" fill="#707372"/><path d="M61.032 0c5.289 0 15.862.889 16.778 10.072H70.02c-.239-2.441-2.644-5.104-8.655-5.104-4.806 0-7.978 1.377-7.978 4.35 0 7.455 25.572.312 25.572 13.845 0 8.168-9.178 10.298-16.488 10.298-12.356 0-17.306-4.481-17.4-11.137h7.788c.194 4.17 3.94 6.168 9.855 6.168 4.373 0 8.461-1.2 8.461-4.661 0-7.857-25.288-1.02-25.288-14.025C45.888 2.748 52.666 0 61.032 0zM80.73 16.733C80.73 7.81 86.401 0 100.918 0s20.189 7.811 20.189 16.728c0 8.917-5.672 16.733-20.189 16.733s-20.19-7.812-20.19-16.733m32.883 0c0-6.967-4.616-11.76-12.689-11.76s-12.69 4.793-12.69 11.76 4.617 11.76 12.69 11.76 12.689-4.793 12.689-11.76zM125.498.889h7.211v26.448h20.862v5.24h-28.073V.888zM163.498.889h-7.211v31.687h7.211V.89zM169.572.889h18.506c13.461 0 16.778 7.098 16.778 16.155 0 6.832-3.362 15.532-15.045 15.532h-20.239V.89zm7.211 26.714h10.145c5.189 0 10.717-1.552 10.717-10.83 0-10.297-7.067-10.916-11.106-10.916h-9.756v21.746zM216.851.889h-7.211v31.687h7.211V.89z" fill="#9A3324"/><path d="M7.6 8.24s-3.277 4.562-4.63 6.453c-1.354 1.89-.43 4.544-.43 4.544l5.664 16.931 8.601-11.98-5.46-16.611s-1.052-3.087.758-5.605L7.604 8.24" fill="url(#prefix__paint0_linear_870_154)"/><path d="M15.934.51s-2.811-.032-4.17 1.86l-4.63 6.452-4.498 6.268c1.81-2.518 5.063-2.514 5.063-2.514l17.486-.144 8.6-11.98L15.93.51h.004z" fill="url(#prefix__paint1_linear_870_154)"/><path d="M16.985 24.26l5.46 16.615s1.052 3.082-.758 5.604c1.895-2.644 4.5-6.268 4.5-6.268l4.629-6.453c1.358-1.89.424-4.544.424-4.544L25.581 12.28l-8.6 11.985.004-.005z" fill="url(#prefix__paint2_linear_870_154)"/><path d="M26.087 35.87l-17.486.145L0 48l17.856-.059s2.811.032 4.17-1.859c1.354-1.89 4.63-6.453 4.63-6.453l4.499-6.268c-1.805 2.518-5.063 2.51-5.063 2.51" fill="url(#prefix__paint3_linear_870_154)"/><defs><linearGradient id="prefix__paint0_linear_870_154" x1="2.039" y1="17.002" x2="16.645" y2="17.002" gradientUnits="userSpaceOnUse"><stop stop-color="#C25C4E"/><stop offset=".28" stop-color="#BD4939"/><stop offset="1" stop-color="#9A3324"/></linearGradient><linearGradient id="prefix__paint1_linear_870_154" x1="2.223" y1="6.885" x2="33.444" y2="6.885" gradientUnits="userSpaceOnUse"><stop stop-color="#C25C4E"/><stop offset=".28" stop-color="#BD4939"/><stop offset="1" stop-color="#9A3324"/></linearGradient><linearGradient id="prefix__paint2_linear_870_154" x1="16.694" y1="26.512" x2="31.302" y2="26.512" gradientUnits="userSpaceOnUse"><stop stop-color="#C7CCCA"/><stop offset="1" stop-color="#707372"/></linearGradient><linearGradient id="prefix__paint3_linear_870_154" x1="-.612" y1="39.453" x2="30.618" y2="39.453" gradientUnits="userSpaceOnUse"><stop stop-color="#C7CCCA"/><stop offset="1" stop-color="#707372"/></linearGradient></defs></svg>